<svg width="24" height="24" viewBox="0 0 24 24" fill="none" xmlns="http://www.w3.org/2000/svg">
<path d="M2.70234 22.1497C2.46184 22.1497 2.25975 22.0675 2.09609 21.903C1.93242 21.7385 1.85059 21.5354 1.85059 21.2937C1.85059 21.0521 1.93242 20.8504 2.09609 20.6887C2.25975 20.5272 2.46184 20.4465 2.70234 20.4465H21.2978C21.5378 20.4465 21.7408 20.5287 21.9066 20.6932C22.0726 20.8577 22.1556 21.0608 22.1556 21.3025C22.1556 21.5441 22.0726 21.7457 21.9066 21.9072C21.7408 22.0689 21.5378 22.1497 21.2978 22.1497H2.70234ZM8.46134 17.9465C8.085 17.9465 7.76617 17.8151 7.50484 17.5522C7.24334 17.2894 7.11259 16.9702 7.11259 16.5947V3.20248C7.11259 2.82531 7.24425 2.50473 7.50759 2.24073C7.77109 1.97673 8.09092 1.84473 8.46709 1.84473C8.84342 1.84473 9.16225 1.97673 9.42359 2.24073C9.68509 2.50473 9.81584 2.82531 9.81584 3.20248V16.5947C9.81584 16.9702 9.68417 17.2894 9.42084 17.5522C9.15734 17.8151 8.8375 17.9465 8.46134 17.9465ZM15.5331 17.9465C15.1568 17.9465 14.8379 17.8151 14.5766 17.5522C14.3151 17.2894 14.1843 16.9702 14.1843 16.5947V9.20248C14.1843 8.82531 14.316 8.50473 14.5793 8.24073C14.8428 7.97673 15.1627 7.84473 15.5388 7.84473C15.9152 7.84473 16.234 7.97673 16.4953 8.24073C16.7568 8.50473 16.8876 8.82531 16.8876 9.20248V16.5947C16.8876 16.9702 16.7559 17.2894 16.4926 17.5522C16.2291 17.8151 15.9093 17.9465 15.5331 17.9465Z" fill="#040709"/>
</svg>
