<svg width="24" height="24" viewBox="0 0 24 24" fill="none" xmlns="http://www.w3.org/2000/svg">
<path d="M2.64055 18.1497C2.15172 18.1497 1.73314 17.9881 1.3848 17.665C1.03647 17.3418 0.862305 16.9356 0.862305 16.4465V3.55398C0.862305 3.07981 1.02914 2.67639 1.3628 2.34373C1.6963 2.01106 2.09722 1.84473 2.56555 1.84473H19.4581C19.9321 1.84473 20.3354 2.01106 20.6681 2.34373C21.0009 2.67639 21.1673 3.07981 21.1673 3.55398V8.70248C21.1673 8.94281 21.085 9.14481 20.9203 9.30848C20.7558 9.47214 20.5518 9.55398 20.3083 9.55398C20.0646 9.55398 19.862 9.47214 19.7003 9.30848C19.5388 9.14481 19.4581 8.94281 19.4581 8.70248V5.19148L11.4716 10.3247C11.3977 10.3661 11.3268 10.3961 11.2588 10.4147C11.191 10.4334 11.1086 10.4427 11.0118 10.4427C10.9205 10.4427 10.8405 10.4334 10.7718 10.4147C10.7031 10.3961 10.6319 10.3661 10.5581 10.3247L2.56555 5.19148V16.4465H14.0823C14.3228 16.4465 14.5249 16.5287 14.6886 16.6932C14.8522 16.8577 14.9341 17.0608 14.9341 17.3025C14.9341 17.5441 14.8522 17.7457 14.6886 17.9072C14.5249 18.0689 14.3228 18.1497 14.0823 18.1497H2.64055ZM11.0118 8.87898L19.4581 3.55398H2.56555L11.0118 8.87898ZM2.56555 5.38448V4.20423V4.22298V4.20348V5.38448ZM19.8356 22.1975C18.8744 22.1975 18.0672 21.8546 17.4141 21.169C16.7607 20.4831 16.4341 19.6588 16.4341 18.696V13.096C16.4341 12.5258 16.6363 12.038 17.0408 11.6325C17.4453 11.227 17.9405 11.0242 18.5263 11.0242C19.0983 11.0242 19.5811 11.227 19.9748 11.6325C20.3686 12.038 20.5656 12.5258 20.5656 13.096V18.0595C20.5656 18.2841 20.4905 18.4714 20.3403 18.6212C20.19 18.7711 20.0038 18.846 19.7818 18.846C19.5598 18.846 19.374 18.7706 19.2243 18.62C19.0746 18.4693 18.9998 18.2826 18.9998 18.06V13.021C18.9998 12.8343 18.9623 12.671 18.8873 12.531C18.8123 12.391 18.6915 12.321 18.5248 12.321C18.3581 12.321 18.229 12.391 18.1373 12.531C18.0456 12.671 17.9998 12.8343 17.9998 13.021V18.746C17.9998 19.3086 18.1692 19.8011 18.5081 20.2232C18.8469 20.6456 19.2892 20.8567 19.8351 20.8567C20.3474 20.8567 20.7639 20.6569 21.0846 20.2572C21.4052 19.8576 21.5656 19.3871 21.5656 18.846V14.671C21.5656 14.4483 21.6413 14.2616 21.7928 14.111C21.9443 13.9603 22.132 13.885 22.3558 13.885C22.5831 13.885 22.7702 13.9603 22.9171 14.111C23.0639 14.2616 23.1373 14.4483 23.1373 14.671V18.846C23.1373 19.7676 22.819 20.5566 22.1823 21.213C21.5458 21.8693 20.7636 22.1975 19.8356 22.1975Z" fill="#040709"/>
</svg>
