<svg width="24" height="24" viewBox="0 0 24 24" fill="none" xmlns="http://www.w3.org/2000/svg">
<path d="M17.3983 19.2212H15.2501C15.0098 19.2212 14.8078 19.139 14.6441 18.9745C14.4803 18.81 14.3983 18.6059 14.3983 18.3622C14.3983 18.1186 14.4803 17.9159 14.6441 17.7542C14.8078 17.5927 15.0098 17.512 15.2501 17.512H17.3983V15.3635C17.3983 15.1231 17.4807 14.9211 17.6453 14.7575C17.8098 14.5938 18.0129 14.512 18.2546 14.512C18.4961 14.512 18.6977 14.5938 18.8593 14.7575C19.021 14.9211 19.1018 15.1231 19.1018 15.3635V17.512H21.2501C21.4904 17.512 21.6924 17.5942 21.8561 17.7587C22.0199 17.9232 22.1018 18.1273 22.1018 18.371C22.1018 18.6146 22.0199 18.8172 21.8561 18.9787C21.6924 19.1404 21.4904 19.2212 21.2501 19.2212H19.1018V21.3635C19.1018 21.608 19.0195 21.8121 18.8548 21.9757C18.6903 22.1394 18.4873 22.2212 18.2456 22.2212C18.0041 22.2212 17.8025 22.1394 17.6408 21.9757C17.4792 21.8121 17.3983 21.608 17.3983 21.3635V19.2212ZM4.55384 20.1495C4.09384 20.1495 3.695 19.9806 3.35734 19.6427C3.0195 19.3051 2.85059 18.9062 2.85059 18.4462V5.05373C2.85059 4.59207 3.0195 4.19181 3.35734 3.85298C3.695 3.51398 4.09384 3.34448 4.55384 3.34448H6.12509V2.69823C6.12509 2.45906 6.20809 2.25698 6.37409 2.09198C6.54025 1.92698 6.74225 1.84448 6.98009 1.84448C7.22492 1.84448 7.43142 1.92698 7.59959 2.09198C7.76775 2.25698 7.85184 2.45906 7.85184 2.69823V3.34448H14.1483V2.69823C14.1483 2.45906 14.2314 2.25698 14.3976 2.09198C14.5636 1.92698 14.7655 1.84448 15.0033 1.84448C15.2483 1.84448 15.4548 1.92698 15.6228 2.09198C15.791 2.25698 15.8751 2.45906 15.8751 2.69823V3.34448H17.4463C17.908 3.34448 18.3083 3.51398 18.6471 3.85298C18.9861 4.19181 19.1556 4.59207 19.1556 5.05373V11.6232C19.1556 11.8677 19.0722 12.0718 18.9053 12.2355C18.7383 12.3991 18.5343 12.481 18.2931 12.481C18.0518 12.481 17.8503 12.3991 17.6886 12.2355C17.5271 12.0718 17.4463 11.8677 17.4463 11.6232V9.74998H4.55384V18.4462H11.5288C11.7688 18.4462 11.9718 18.5285 12.1376 18.693C12.3036 18.8575 12.3866 19.0606 12.3866 19.3022C12.3866 19.5439 12.3036 19.7455 12.1376 19.907C11.9718 20.0686 11.7688 20.1495 11.5288 20.1495H4.55384ZM4.55384 8.24998H17.4463V5.05373H4.55384V8.24998Z" fill="#040709"/>
</svg>
