<svg width="24" height="24" viewBox="0 0 24 24" fill="none" xmlns="http://www.w3.org/2000/svg">
<path d="M11.1902 17.4445C10.4109 17.8445 9.63146 18.231 8.85196 18.604C8.07246 18.977 7.24121 19.1635 6.35821 19.1635C5.49837 19.1635 4.67654 18.9962 3.89271 18.6615C3.10887 18.3267 2.34604 17.9301 1.60421 17.4718C1.40504 17.3428 1.29712 17.1601 1.28046 16.9238C1.26379 16.6873 1.34471 16.4943 1.52321 16.345C2.13204 15.8157 2.78562 15.374 3.48396 15.02C4.18229 14.6662 4.92746 14.4436 5.71946 14.3523C4.56079 13.5529 3.67712 12.5358 3.06846 11.3008C2.45979 10.0658 2.04912 8.74634 1.83646 7.34251C1.79512 7.05184 1.87246 6.79334 2.06846 6.56701C2.26462 6.34084 2.50487 6.24442 2.78921 6.27776C3.89737 6.36059 4.95587 6.63442 5.96471 7.09926C6.97371 7.56426 7.87621 8.19476 8.67221 8.99076C8.64287 8.84476 8.62721 8.69692 8.62521 8.54726C8.62321 8.39776 8.62221 8.24926 8.62221 8.10176C8.63021 6.73576 8.88937 5.42901 9.39971 4.18151C9.91004 2.93401 10.5235 1.72909 11.2402 0.566756C11.387 0.342922 11.5907 0.225839 11.8512 0.215506C12.1115 0.205172 12.3164 0.305589 12.4657 0.516756C13.3077 1.64542 14.0005 2.84026 14.5442 4.10126C15.0879 5.36209 15.3657 6.69559 15.3777 8.10176C15.3777 8.25059 15.3735 8.39942 15.3652 8.54826C15.3569 8.69726 15.3464 8.84476 15.3337 8.99076C16.129 8.19576 17.0341 7.56542 18.049 7.09976C19.064 6.63409 20.1262 6.36009 21.2357 6.27776C21.5264 6.24442 21.7692 6.34084 21.9642 6.56701C22.159 6.79334 22.2358 7.05184 22.1945 7.34251C21.9611 8.72967 21.5391 10.0408 20.9285 11.2758C20.3178 12.5108 19.4435 13.5363 18.3055 14.3523C19.0975 14.4436 19.8385 14.6703 20.5285 15.0325C21.2185 15.3948 21.8679 15.8407 22.4767 16.37C22.6552 16.5147 22.7371 16.7023 22.7225 16.9328C22.7078 17.1634 22.6009 17.3431 22.4017 17.4718C21.6612 17.9468 20.8986 18.3475 20.114 18.674C19.3291 19.0003 18.5025 19.1635 17.6342 19.1635C16.7599 19.1635 15.931 18.977 15.1477 18.604C14.3644 18.231 13.585 17.8445 12.8097 17.4445V21.3458C12.8097 21.5741 12.731 21.7652 12.5735 21.919C12.416 22.0727 12.2229 22.1495 11.9942 22.1495C11.7639 22.1495 11.5723 22.0719 11.4195 21.9168C11.2666 21.7614 11.1902 21.5691 11.1902 21.3398V17.4445ZM9.85421 14.5293C9.63754 13.7746 9.37287 13.0356 9.06021 12.3123C8.74754 11.5889 8.33054 10.9356 7.80921 10.3523C7.28387 9.81026 6.68437 9.37592 6.01071 9.04926C5.33704 8.72276 4.63512 8.44242 3.90496 8.20826C4.10079 8.98342 4.34954 9.72984 4.65121 10.4475C4.95304 11.1652 5.37571 11.8111 5.91921 12.3853C6.44037 12.9439 7.04204 13.3868 7.72421 13.7138C8.40621 14.0408 9.11621 14.3126 9.85421 14.5293ZM6.34871 17.55C6.82171 17.55 7.27387 17.4701 7.70521 17.3103C8.13654 17.1506 8.56887 16.9719 9.00221 16.7743C8.56804 16.5764 8.13954 16.3841 7.71671 16.1973C7.29387 16.0103 6.84187 15.9168 6.36071 15.9168C5.87971 15.9168 5.42762 16.0019 5.00446 16.1723C4.58146 16.3424 4.15529 16.5264 3.72596 16.7243C4.12596 16.9553 4.54487 17.1506 4.98271 17.3103C5.42037 17.4701 5.87571 17.55 6.34871 17.55ZM12.0475 14.3625C12.6371 13.4332 13.0696 12.4403 13.345 11.384C13.6205 10.3277 13.7582 9.25151 13.7582 8.15551C13.7582 7.16401 13.5835 6.21176 13.2342 5.29876C12.885 4.38576 12.4746 3.50226 12.003 2.64826C11.5106 3.49826 11.094 4.37976 10.7532 5.29276C10.4122 6.20576 10.2417 7.16001 10.2417 8.15551C10.2417 9.25551 10.412 10.3233 10.7525 11.359C11.0928 12.3947 11.5245 13.3958 12.0475 14.3625ZM14.1707 14.5293C14.9047 14.3126 15.6095 14.0376 16.2852 13.7043C16.961 13.3709 17.5607 12.9313 18.0842 12.3853C18.6074 11.8059 19.0201 11.1533 19.3225 10.4275C19.6248 9.70151 19.8843 8.96176 20.101 8.20826C19.367 8.44159 18.6621 8.72176 17.9865 9.04876C17.3106 9.37576 16.712 9.81026 16.1907 10.3523C15.636 10.9316 15.2075 11.5797 14.9052 12.2965C14.6029 13.0135 14.358 13.7578 14.1707 14.5293ZM17.6347 17.55C18.0982 17.55 18.5466 17.4687 18.98 17.306C19.4133 17.1433 19.8466 16.966 20.28 16.774C19.8466 16.578 19.4182 16.3861 18.9947 16.1983C18.5714 16.0106 18.1189 15.9168 17.6372 15.9168C17.1559 15.9168 16.7032 16.0103 16.2792 16.1973C15.8552 16.3841 15.428 16.5755 14.9977 16.7715C15.4319 16.967 15.864 17.1456 16.2942 17.3073C16.7244 17.4691 17.1712 17.55 17.6347 17.55Z" fill="#040709"/>
</svg>
