<svg width="24" height="24" viewBox="0 0 24 24" fill="none" xmlns="http://www.w3.org/2000/svg">
<path d="M11.9995 8.7041C12.0934 8.7041 12.1694 8.73239 12.2495 8.8125L17.1929 13.7568C17.2749 13.8388 17.3013 13.9127 17.3013 14C17.3012 14.0872 17.2748 14.1612 17.1929 14.2432C17.1148 14.3212 17.0378 14.3516 16.937 14.3516C16.8364 14.3515 16.7601 14.321 16.6821 14.2432L16.6812 14.2422L12.3521 9.93848L11.9985 9.58691L7.31787 14.2676C7.24013 14.3453 7.1739 14.3672 7.09326 14.3643C6.999 14.3608 6.9176 14.3292 6.83154 14.2432C6.75343 14.165 6.72314 14.0882 6.72314 13.9873C6.72315 13.8864 6.75343 13.8096 6.83154 13.7314L11.7505 8.8125C11.8305 8.7325 11.9058 8.70418 11.9995 8.7041Z" fill="#040709" stroke="#040709"/>
</svg>
