<svg width="24" height="24" viewBox="0 0 24 24" fill="none" xmlns="http://www.w3.org/2000/svg">
<path d="M12.0001 17.0005C12.9596 17.0005 13.7988 16.7028 14.5176 16.1075C15.2364 15.5123 15.6934 14.7567 15.8886 13.8407C15.9219 13.6969 15.8891 13.5718 15.7901 13.4655C15.6909 13.3591 15.5642 13.306 15.4098 13.306H8.56534C8.42434 13.306 8.30509 13.3585 8.20759 13.4635C8.11025 13.5683 8.07825 13.6941 8.11159 13.8407C8.30675 14.7567 8.76375 15.5123 9.48259 16.1075C10.2014 16.7028 11.0406 17.0005 12.0001 17.0005ZM12.0031 22.1495C10.7311 22.1495 9.54034 21.909 8.43084 21.428C7.32117 20.947 6.35425 20.2953 5.53009 19.473C4.70575 18.6508 4.05309 17.6849 3.57209 16.5752C3.09109 15.4656 2.85059 14.2841 2.85059 13.031V3.55373C2.85059 3.07957 3.01634 2.67615 3.34784 2.34348C3.67934 2.01081 4.08134 1.84448 4.55384 1.84448H19.4463C19.9205 1.84448 20.3239 2.01081 20.6566 2.34348C20.9893 2.67615 21.1556 3.07957 21.1556 3.55373V13.031C21.1556 14.2841 20.9141 15.4656 20.4311 16.5752C19.9481 17.6849 19.2944 18.6508 18.4701 19.473C17.6459 20.2953 16.679 20.947 15.5693 21.428C14.4598 21.909 13.2711 22.1495 12.0031 22.1495ZM12.0001 20.4462C14.0674 20.4462 15.8253 19.7272 17.2738 18.2892C18.7222 16.8511 19.4463 15.0983 19.4463 13.031V3.55373H4.55384V13.031C4.55384 15.0983 5.27684 16.8511 6.72284 18.2892C8.16867 19.7272 9.92775 20.4462 12.0001 20.4462ZM8.87934 7.03048C8.44467 7.03048 8.061 7.15848 7.72834 7.41448C7.39567 7.67032 7.17342 7.9959 7.06159 8.39123C7.02425 8.5239 7.05267 8.64307 7.14684 8.74873C7.241 8.85423 7.36384 8.90698 7.51534 8.90698H10.2491C10.3973 8.90698 10.5183 8.85315 10.6121 8.74548C10.7059 8.63782 10.7342 8.51973 10.6968 8.39123C10.5848 7.9959 10.3627 7.67032 10.0303 7.41448C9.69784 7.15848 9.31417 7.03048 8.87934 7.03048ZM15.1183 7.03048C14.6855 7.03048 14.2976 7.15848 13.9546 7.41448C13.6118 7.67032 13.3843 7.9949 13.2723 8.38823C13.231 8.52107 13.258 8.64073 13.3533 8.74723C13.4487 8.85373 13.5738 8.90698 13.7288 8.90698H16.4908C16.639 8.90698 16.76 8.85315 16.8538 8.74548C16.9477 8.63782 16.9759 8.51973 16.9386 8.39123C16.8268 7.9959 16.6036 7.67032 16.2691 7.41448C15.9348 7.15848 15.5512 7.03048 15.1183 7.03048Z" fill="#040709"/>
</svg>
