<svg width="24" height="24" viewBox="0 0 24 24" fill="none" xmlns="http://www.w3.org/2000/svg">
<path d="M12.0043 22.311C10.0692 22.311 8.488 22.0258 7.26084 21.4555C6.03367 20.8853 5.42009 20.1542 5.42009 19.262C5.42009 18.8463 5.55825 18.4603 5.83459 18.104C6.11092 17.7477 6.52259 17.4306 7.06959 17.1528C7.27692 17.0614 7.48834 17.0498 7.70384 17.1178C7.9195 17.1856 8.07292 17.3242 8.16409 17.5335C8.25542 17.7427 8.26817 17.9551 8.20234 18.1708C8.13634 18.3863 7.99975 18.5397 7.79259 18.631C7.65525 18.731 7.52925 18.8352 7.41459 18.9435C7.29992 19.0518 7.19259 19.156 7.09259 19.256C7.39242 19.6165 8.02884 19.9309 9.00184 20.1993C9.975 20.4676 10.9754 20.6018 12.0031 20.6018C13.0308 20.6018 14.031 20.4676 15.0038 20.1993C15.9767 19.9309 16.6133 19.6165 16.9136 19.256C16.8136 19.156 16.7063 19.0518 16.5916 18.9435C16.4769 18.8352 16.3509 18.731 16.2136 18.631C16.0064 18.5397 15.8698 18.3863 15.8038 18.1708C15.738 17.9551 15.7507 17.7417 15.8418 17.5305C15.9292 17.3232 16.0807 17.1856 16.2963 17.1178C16.5118 17.0498 16.7253 17.0614 16.9366 17.1528C17.4796 17.4306 17.8903 17.7477 18.1686 18.104C18.4469 18.4603 18.5861 18.8463 18.5861 19.262C18.5861 20.1542 17.9729 20.8853 16.7466 21.4555C15.5203 22.0258 13.9395 22.311 12.0043 22.311ZM12.0371 17.0233C13.8338 15.6973 15.1854 14.3483 16.0921 12.9763C16.9989 11.6044 17.4523 10.3202 17.4523 9.12351C17.4523 7.28418 16.8665 5.8961 15.6948 4.95926C14.5232 4.02226 13.2937 3.55376 12.0063 3.55376C10.7308 3.55376 9.50317 4.02209 8.32334 4.95876C7.14367 5.8956 6.55384 7.28426 6.55384 9.12476C6.55384 10.3264 7.00817 11.5796 7.91684 12.8843C8.82567 14.1889 10.1991 15.5686 12.0371 17.0233ZM12.0061 18.7575C11.8361 18.7575 11.6662 18.7296 11.4963 18.6738C11.3263 18.6178 11.1687 18.5338 11.0233 18.4218C8.9575 16.7931 7.41225 15.2075 6.38759 13.665C5.36292 12.1225 4.85059 10.6095 4.85059 9.12601C4.85059 7.92685 5.06825 6.87301 5.50359 5.96451C5.93892 5.05601 6.50075 4.2961 7.18909 3.68476C7.87742 3.07326 8.64417 2.61368 9.48934 2.30601C10.3345 1.99835 11.173 1.84451 12.0048 1.84451C12.8367 1.84451 13.6791 1.99835 14.5321 2.30601C15.3851 2.61368 16.1514 3.07326 16.8311 3.68476C17.5106 4.2961 18.0678 5.05601 18.5028 5.96451C18.938 6.87301 19.1556 7.92685 19.1556 9.12601C19.1556 10.607 18.6433 12.1174 17.6186 13.6573C16.5939 15.1969 15.0423 16.7831 12.9636 18.4158C12.8156 18.5298 12.6619 18.6153 12.5026 18.6723C12.3433 18.7291 12.1778 18.7575 12.0061 18.7575ZM12.0048 11.018C12.5677 11.018 13.0488 10.8181 13.4483 10.4183C13.848 10.0183 14.0478 9.53751 14.0478 8.97601C14.0478 8.41418 13.8478 7.93343 13.4478 7.53376C13.0478 7.1341 12.5669 6.93426 12.0051 6.93426C11.4416 6.93426 10.9596 7.1341 10.5591 7.53376C10.1586 7.93343 9.95834 8.41418 9.95834 8.97601C9.95834 9.53801 10.1587 10.0188 10.5593 10.4185C10.9602 10.8182 11.442 11.018 12.0048 11.018Z" fill="#040709"/>
</svg>
