<svg width="48" height="48" viewBox="0 0 48 48" fill="none" xmlns="http://www.w3.org/2000/svg">
<path d="M20.5667 15.885V22.042C20.5667 22.2473 20.6345 22.419 20.7702 22.557C20.9062 22.695 21.076 22.764 21.2797 22.764C21.4867 22.764 21.6588 22.695 21.7962 22.557C21.9335 22.419 22.0022 22.2465 22.0022 22.0395V14.4445C22.0022 14.2791 21.9573 14.1513 21.8677 14.061C21.778 13.9703 21.6515 13.925 21.4882 13.925H21.1317C21.0737 13.925 20.9705 13.958 20.8222 14.024L18.9172 15.4075C18.7515 15.5145 18.6583 15.6481 18.6377 15.8085C18.617 15.9691 18.6587 16.1318 18.7627 16.2965C18.8667 16.4711 19.004 16.5751 19.1747 16.6085C19.3453 16.6418 19.514 16.6053 19.6807 16.499L20.5667 15.885ZM26.6202 15.061C27.0292 15.061 27.371 15.175 27.6457 15.403C27.9203 15.631 28.0577 15.9121 28.0577 16.2465C28.0577 16.6371 27.9723 16.9991 27.8017 17.3325C27.631 17.6658 27.3917 17.9865 27.0837 18.2945L24.0552 21.276C24.0208 21.3103 23.9692 21.4303 23.9002 21.636V22.0985C23.9002 22.2698 23.9692 22.4236 24.1072 22.56C24.2448 22.696 24.3998 22.764 24.5722 22.764H29.0352C29.1995 22.764 29.344 22.6973 29.4687 22.564C29.5933 22.4306 29.6557 22.2771 29.6557 22.1035C29.6557 21.9298 29.5938 21.7841 29.4702 21.6665C29.3465 21.5488 29.2003 21.49 29.0317 21.49H25.7482V21.4285L28.0102 19.163C28.5558 18.6183 28.9395 18.1248 29.1612 17.6825C29.3828 17.2401 29.4937 16.7635 29.4937 16.2525C29.4937 15.5588 29.2203 14.9641 28.6737 14.4685C28.1273 13.9728 27.4613 13.725 26.6757 13.725C26.0903 13.725 25.573 13.8553 25.1237 14.116C24.6747 14.3766 24.3335 14.7306 24.1002 15.178C24.0335 15.3456 24.034 15.5051 24.1017 15.6565C24.1693 15.8078 24.288 15.917 24.4577 15.984C24.6273 16.0513 24.8003 16.06 24.9767 16.01C25.1533 15.96 25.295 15.8516 25.4017 15.685C25.566 15.477 25.7505 15.321 25.9552 15.217C26.1595 15.113 26.3812 15.061 26.6202 15.061ZM20.3047 34.263C21.1963 34.263 21.9332 34.0158 22.5152 33.5215C23.0972 33.0268 23.3882 32.3873 23.3882 31.603C23.3882 31.1253 23.2505 30.689 22.9752 30.294C22.6995 29.899 22.3407 29.6156 21.8987 29.444V29.341C22.2713 29.1696 22.5607 28.9038 22.7667 28.5435C22.973 28.1831 23.0762 27.797 23.0762 27.385C23.0762 26.7093 22.8115 26.147 22.2822 25.698C21.7532 25.2486 21.0788 25.024 20.2592 25.024C19.7735 25.024 19.3162 25.1451 18.8872 25.3875C18.4585 25.6295 18.111 25.937 17.8447 26.31C17.7367 26.4766 17.7243 26.637 17.8077 26.791C17.891 26.9446 18.018 27.0568 18.1887 27.1275C18.3593 27.1981 18.5242 27.2148 18.6832 27.1775C18.8422 27.1401 18.9747 27.0381 19.0807 26.8715C19.1473 26.7638 19.524 26.5766 20.2107 26.31C20.6227 26.31 20.9555 26.4123 21.2092 26.617C21.4632 26.822 21.5902 27.1121 21.5902 27.4875C21.5902 27.8595 21.444 28.1665 21.1517 28.4085C20.859 28.6505 20.506 28.7715 20.0927 28.7715C19.9207 28.7715 19.7673 28.833 19.6327 28.956C19.498 29.079 19.4307 29.2283 19.4307 29.404C19.4307 29.5796 19.491 29.7321 19.6117 29.8615C19.7323 29.9908 19.8792 30.0555 20.0522 30.0555H20.2077C20.692 30.0555 21.0955 30.1928 21.4182 30.4675C21.7408 30.7425 21.9022 31.0861 21.9022 31.4985C21.9022 31.8761 21.7472 32.2003 21.4372 32.471C21.1272 32.7416 20.7482 32.877 20.3002 32.877C20.0245 32.877 19.7587 32.8083 19.5027 32.671C19.2467 32.5336 19.036 32.3316 18.8707 32.065C18.7633 31.8983 18.6313 31.7861 18.4747 31.7285C18.318 31.6705 18.1555 31.676 17.9872 31.745C17.8185 31.814 17.684 31.9435 17.5837 32.1335C17.483 32.3231 17.4827 32.5043 17.5827 32.677C17.8537 33.1603 18.2295 33.5455 18.7102 33.8325C19.1905 34.1195 19.722 34.263 20.3047 34.263ZM27.5977 34.263C28.417 34.263 29.1355 33.9673 29.7532 33.376C30.3708 32.7846 30.6797 32.0938 30.6797 31.3035C30.6797 30.5128 30.414 29.8345 29.8827 29.2685C29.3513 28.7025 28.7257 28.4195 28.0057 28.4195C27.8403 28.4195 27.5337 28.4861 27.0857 28.6195H27.0337L28.6317 26.36C28.7317 26.1933 28.7713 26.0163 28.7507 25.829C28.73 25.6416 28.6363 25.498 28.4697 25.398C28.3043 25.29 28.1343 25.2526 27.9597 25.286C27.7847 25.3193 27.6448 25.4186 27.5402 25.584L25.6932 28.317C25.2218 29.0013 24.9092 29.5488 24.7552 29.9595C24.6012 30.3705 24.5242 30.7985 24.5242 31.2435C24.5242 32.0991 24.8162 32.8163 25.4002 33.395C25.9845 33.9736 26.717 34.263 27.5977 34.263ZM27.5947 32.939C27.1207 32.939 26.7297 32.7845 26.4217 32.4755C26.114 32.1665 25.9602 31.7718 25.9602 31.2915C25.9602 31.0165 26.0288 30.75 26.1662 30.492C26.3032 30.2343 26.504 30.0221 26.7687 29.8555C26.8717 29.7888 27.1467 29.7221 27.5937 29.6555C28.0403 29.6555 28.427 29.8201 28.7537 30.1495C29.0803 30.4788 29.2437 30.8761 29.2437 31.3415C29.2437 31.7881 29.0872 32.1661 28.7742 32.4755C28.4615 32.7845 28.0683 32.939 27.5947 32.939ZM24.0017 44.299C21.2197 44.299 18.5945 43.7665 16.1262 42.7015C13.6578 41.6368 11.5025 40.1833 9.66017 38.341C7.81751 36.499 6.36367 34.344 5.29867 31.876C4.23367 29.4083 3.70117 26.7835 3.70117 24.0015C3.70117 21.2195 4.23451 18.5938 5.30117 16.1245C6.36784 13.6555 7.82117 11.501 9.66117 9.66096C11.5012 7.82096 13.6553 6.36563 16.1237 5.29496C18.592 4.2243 21.2175 3.68896 24.0002 3.68896C26.7828 3.68896 29.4083 4.2243 31.8767 5.29496C34.345 6.36563 36.4992 7.82096 38.3392 9.66096C40.1792 11.501 41.6345 13.6551 42.7052 16.1235C43.7758 18.5918 44.3112 21.2173 44.3112 24C44.3112 26.7826 43.7758 29.4081 42.7052 31.8765C41.6345 34.3448 40.1792 36.499 38.3392 38.339C36.4992 40.179 34.3452 41.6323 31.8772 42.699C29.4092 43.7656 26.784 44.299 24.0017 44.299ZM23.9942 40.8925C28.6328 40.8925 32.609 39.2396 35.9227 35.934C39.236 32.6286 40.8927 28.6526 40.8927 24.006C40.8927 19.3593 39.2365 15.3811 35.9242 12.0715C32.6118 8.76213 28.6372 7.10746 24.0002 7.10746C19.3575 7.10746 15.3813 8.7618 12.0717 12.0705C8.76234 15.3788 7.10767 19.3553 7.10767 24C7.10767 28.6506 8.76234 32.6286 12.0717 35.934C15.381 39.2396 19.3552 40.8925 23.9942 40.8925Z" fill="#0C0902"/>
</svg>
