<svg width="24" height="24" viewBox="0 0 24 24" fill="none" xmlns="http://www.w3.org/2000/svg">
<path d="M20.6518 11.5647L5.81583 15.5635C5.43866 15.6588 5.07716 15.635 4.73133 15.492C4.38549 15.3491 4.11091 15.1161 3.90758 14.793L1.49458 10.7917C1.34541 10.5385 1.32674 10.2698 1.43858 9.98545C1.55058 9.70128 1.75191 9.51553 2.04258 9.4282L2.56533 9.2912C2.71066 9.24987 2.86008 9.2437 3.01358 9.2727C3.16724 9.3017 3.30008 9.36187 3.41208 9.4532L5.96908 11.6162L9.92683 10.5272L5.54958 4.69895C5.31691 4.39162 5.26391 4.04487 5.39058 3.6587C5.51724 3.27237 5.76949 3.03362 6.14733 2.94245L6.63933 2.80545C6.81783 2.76412 6.99324 2.76312 7.16558 2.80245C7.33791 2.84178 7.49466 2.9237 7.63583 3.0482L14.9918 9.19245L19.5858 7.94245C20.0932 7.82178 20.5639 7.89337 20.9981 8.1572C21.4324 8.4212 21.7182 8.80878 21.8556 9.31995C21.9929 9.81062 21.9451 10.273 21.7121 10.7072C21.4791 11.1415 21.1257 11.4274 20.6518 11.5647ZM3.69633 21.1495C3.45166 21.1495 3.24958 21.0686 3.09008 20.9069C2.93041 20.7455 2.85058 20.5424 2.85058 20.2977C2.85058 20.0532 2.93141 19.8511 3.09308 19.6915C3.25458 19.5319 3.45766 19.4522 3.70233 19.4522H20.3038C20.5485 19.4522 20.7516 19.533 20.9131 19.6945C21.0747 19.8561 21.1556 20.0592 21.1556 20.3037C21.1556 20.5484 21.0737 20.7505 20.9101 20.91C20.7466 21.0696 20.5425 21.1495 20.2978 21.1495H3.69633Z" fill="#040709"/>
</svg>
