<svg width="24" height="24" viewBox="0 0 24 24" fill="none" xmlns="http://www.w3.org/2000/svg">
<path d="M7.43757 21.2976V18.4244H1.27557C0.931739 18.4244 0.674906 18.2731 0.505073 17.9706C0.335073 17.6679 0.353656 17.3737 0.560823 17.0879L4.39632 11.5744H3.47132C3.16332 11.5744 2.93432 11.44 2.78432 11.1714C2.63432 10.9027 2.65099 10.6394 2.83432 10.3814L8.22557 2.73736C8.39557 2.49286 8.63182 2.37061 8.93432 2.37061C9.23682 2.37061 9.47307 2.49286 9.64307 2.73736L12.0001 6.08235L14.3571 2.73736C14.5271 2.49286 14.7633 2.37061 15.0658 2.37061C15.3683 2.37061 15.6066 2.49286 15.7806 2.73736L21.1658 10.3814C21.3492 10.6394 21.3658 10.9027 21.2158 11.1714C21.0658 11.44 20.8388 11.5744 20.5348 11.5744H19.6348L23.4451 17.0879C23.6484 17.3737 23.6651 17.6679 23.4951 17.9706C23.3252 18.2731 23.0704 18.4244 22.7306 18.4244H16.5876V21.2976C16.5876 21.5423 16.5067 21.7454 16.3451 21.9069C16.1836 22.0685 15.9805 22.1494 15.7358 22.1494H14.4268C14.1822 22.1494 13.9791 22.0685 13.8176 21.9069C13.6559 21.7454 13.5751 21.5423 13.5751 21.2976V18.4244H10.4501V21.2976C10.4501 21.5423 10.3692 21.7454 10.2076 21.9069C10.0461 22.0685 9.84299 22.1494 9.59832 22.1494H8.28932C8.04466 22.1494 7.84157 22.0685 7.68007 21.9069C7.51841 21.7454 7.43757 21.5423 7.43757 21.2976ZM17.0658 16.7211H21.0773L16.3343 9.8711H18.5893L15.0658 4.87061L13.1256 7.66185L15.0283 10.3814C15.2117 10.6354 15.2283 10.8977 15.0783 11.1684C14.9283 11.439 14.6993 11.5744 14.3913 11.5744H13.4913L17.0658 16.7211ZM2.94782 16.7211H14.9398L10.1968 9.8711H12.4576L8.93432 4.87061L5.41082 9.8711H7.69082L2.94782 16.7211ZM2.94782 16.7211H7.69082H5.41082H12.4576H10.1968H14.9398H2.94782ZM17.0658 16.7211H13.4913H15.8713H13.1256H18.5893H16.3343H21.0773H17.0658Z" fill="#040709"/>
</svg>
