<svg width="24" height="24" viewBox="0 0 24 24" fill="none" xmlns="http://www.w3.org/2000/svg">
<path d="M11.9999 22.1495C9.56719 22.1495 7.43044 21.4005 5.5896 19.9025C3.7486 18.4045 2.58919 16.4951 2.11135 14.1745C2.06202 13.9465 2.09952 13.7382 2.22385 13.5497C2.34802 13.3611 2.53235 13.2481 2.77685 13.2107C3.01719 13.1736 3.23052 13.2254 3.41685 13.3662C3.60335 13.5072 3.7276 13.698 3.7896 13.9385C4.23877 15.8446 5.22327 17.4058 6.7431 18.622C8.26277 19.8381 10.015 20.4462 11.9999 20.4462C14.3569 20.4462 16.3538 19.6277 17.9906 17.9907C19.6276 16.3539 20.4461 14.357 20.4461 12C20.4461 9.64298 19.6276 7.64607 17.9906 6.00923C16.3538 4.37223 14.3569 3.55373 11.9999 3.55373C10.4342 3.55373 8.97919 3.96181 7.63485 4.77798C6.29052 5.59415 5.26635 6.68665 4.56235 8.05548H6.82585C7.06235 8.05548 7.26244 8.13873 7.4261 8.30523C7.58977 8.47173 7.6716 8.67582 7.6716 8.91748C7.6716 9.15915 7.58977 9.35973 7.4261 9.51923C7.26244 9.6789 7.06035 9.75873 6.81985 9.75873H3.3081C2.98877 9.75873 2.74219 9.6374 2.56835 9.39473C2.39435 9.15223 2.35502 8.88173 2.45035 8.58323C3.15835 6.5679 4.3821 4.94098 6.1216 3.70248C7.8611 2.46381 9.82394 1.84448 12.0101 1.84448C13.4108 1.84448 14.7274 2.11098 15.9599 2.64398C17.1924 3.17698 18.2665 3.90148 19.1824 4.81748C20.0984 5.73332 20.8229 6.80856 21.3559 8.04323C21.8889 9.27773 22.1554 10.5966 22.1554 12C22.1554 13.4033 21.8889 14.7222 21.3559 15.9567C20.8229 17.1914 20.0984 18.2666 19.1824 19.1825C18.2665 20.0985 17.1913 20.822 15.9566 21.353C14.7221 21.884 13.4032 22.1495 11.9999 22.1495ZM12.8516 11.6587L15.4596 14.2602C15.6296 14.4342 15.7146 14.6351 15.7146 14.863C15.7146 15.091 15.6296 15.2899 15.4596 15.4597C15.2858 15.6337 15.0849 15.7197 14.8569 15.7177C14.629 15.7157 14.4281 15.6297 14.2541 15.4597L11.3971 12.5967C11.3058 12.5054 11.2404 12.4103 11.2011 12.3115C11.1619 12.2125 11.1424 12.1106 11.1424 12.006V7.92398C11.1424 7.68348 11.2246 7.4804 11.3891 7.31473C11.5536 7.14907 11.7567 7.06623 11.9984 7.06623C12.2399 7.06623 12.4424 7.14907 12.6061 7.31473C12.7698 7.4804 12.8516 7.68348 12.8516 7.92398V11.6587Z" fill="#040709"/>
</svg>
