<svg width="24" height="24" viewBox="0 0 24 24" fill="none" xmlns="http://www.w3.org/2000/svg">
<path d="M4.55384 20.2273C4.08134 20.2273 3.67934 20.0605 3.34784 19.7268C3.01634 19.3931 2.85059 18.9922 2.85059 18.524V17.7158C2.85059 17.0573 3.01659 16.4907 3.34859 16.016C3.68042 15.5412 4.109 15.1806 4.63434 14.9343C5.759 14.4303 6.83975 14.0523 7.87659 13.8003C8.91342 13.5483 9.95459 13.4223 11.0001 13.4223C11.3441 13.4223 11.6881 13.4345 12.0321 13.4588C12.3761 13.4831 12.7202 13.5273 13.0643 13.5913C13.2135 13.6286 13.3284 13.6975 13.4091 13.798C13.4898 13.8985 13.5301 14.0202 13.5301 14.163C13.5339 14.9964 13.7305 15.7755 14.1198 16.5005C14.5092 17.2255 15.0455 17.8214 15.7288 18.288C15.8422 18.3675 15.9317 18.4648 15.9973 18.5798C16.063 18.695 16.0958 18.819 16.0958 18.9518V19.378C16.0958 19.6169 16.014 19.8181 15.8503 19.9818C15.6865 20.1455 15.4844 20.2273 15.2441 20.2273H4.55384ZM10.9971 11.4223C9.90525 11.4223 8.98292 11.0453 8.23009 10.2913C7.47709 9.53729 7.10059 8.61496 7.10059 7.52429C7.10059 6.43346 7.477 5.51062 8.22984 4.75579C8.98267 4.00079 9.90509 3.62329 10.9971 3.62329C12.0889 3.62329 13.0133 4.00113 13.7701 4.75679C14.5271 5.51246 14.9056 6.43488 14.9056 7.52404C14.9056 8.61488 14.5272 9.53729 13.7703 10.2913C13.0135 11.0453 12.0891 11.4223 10.9971 11.4223ZM18.5898 14.6273C18.8753 14.6273 19.1163 14.5292 19.3128 14.333C19.5093 14.137 19.6076 13.8966 19.6076 13.6118C19.6076 13.3268 19.5093 13.0855 19.3128 12.8878C19.1163 12.6901 18.8753 12.5913 18.5898 12.5913C18.3042 12.5913 18.0631 12.6901 17.8666 12.8878C17.6701 13.0855 17.5718 13.327 17.5718 13.6123C17.5718 13.8976 17.6701 14.1381 17.8666 14.3338C18.0631 14.5295 18.3042 14.6273 18.5898 14.6273ZM18.7908 23.4778L17.6898 22.3825C17.6525 22.3407 17.6132 22.2435 17.5718 22.0908V17.5335C16.8278 17.3117 16.2182 16.8909 15.7428 16.271C15.2677 15.6512 15.0301 14.9338 15.0301 14.1188C15.0301 13.1338 15.377 12.2936 16.0708 11.5983C16.7647 10.9031 17.6043 10.5555 18.5896 10.5555C19.5749 10.5555 20.4156 10.9038 21.1116 11.6003C21.8076 12.297 22.1556 13.138 22.1556 14.1233C22.1556 14.8878 21.9401 15.5667 21.5091 16.16C21.0781 16.7534 20.5316 17.177 19.8696 17.431L20.8268 18.388C20.914 18.4752 20.9576 18.5788 20.9576 18.6988C20.9576 18.8188 20.914 18.9225 20.8268 19.0098L19.9186 19.918C19.8273 20.004 19.7816 20.1063 19.7816 20.2248C19.7816 20.3435 19.8273 20.4485 19.9186 20.5398L20.8268 21.4418C20.914 21.529 20.9576 21.6325 20.9576 21.7525C20.9576 21.8725 20.914 21.9762 20.8268 22.0635L19.4126 23.4778C19.3256 23.5691 19.222 23.6148 19.1018 23.6148C18.9818 23.6148 18.8782 23.5691 18.7908 23.4778Z" fill="#040709"/>
</svg>
