<svg width="24" height="24" viewBox="0 0 24 24" fill="none" xmlns="http://www.w3.org/2000/svg">
<path d="M2.67834 23.1792C2.44634 23.1792 2.25042 23.099 2.09059 22.9385C1.93059 22.778 1.85059 22.5799 1.85059 22.3442C1.85059 22.1085 1.93059 21.9119 2.09059 21.7542C2.25042 21.5967 2.44634 21.518 2.67834 21.518H21.3218C21.5555 21.518 21.7528 21.5983 21.9138 21.759C22.075 21.9198 22.1556 22.1168 22.1556 22.35C22.1556 22.5876 22.075 22.7853 21.9138 22.943C21.7528 23.1005 21.5555 23.1792 21.3218 23.1792H2.67834ZM4.69634 20.018C4.45584 20.018 4.25375 19.9361 4.09009 19.7725C3.92642 19.6088 3.84459 19.4067 3.84459 19.1662V14.6542C3.17075 13.1017 2.70684 11.8543 2.45284 10.912C2.19884 9.9698 2.07184 9.0303 2.07184 8.09346C2.07184 7.15463 2.19067 6.13996 2.42834 5.04946C2.666 3.9588 3.0075 2.92255 3.45284 1.94071C3.6275 1.56205 3.85784 1.27096 4.14384 1.06746C4.43 0.863797 4.75059 0.761963 5.10559 0.761963C5.55792 0.761963 5.90317 0.912797 6.14134 1.21446C6.37934 1.51596 6.50425 1.96655 6.51609 2.56621L6.56434 5.94246C6.58017 6.6678 6.73375 7.35046 7.02509 7.99046C7.31642 8.63046 7.70892 9.18713 8.20259 9.66046C8.69625 10.134 9.26559 10.5052 9.91059 10.7742C10.5558 11.0432 11.2523 11.1777 12.0001 11.1777C13.3839 11.1777 14.5748 11.2738 15.5726 11.466C16.5704 11.658 17.3998 11.9415 18.0608 12.3167C18.7675 12.712 19.2923 13.2215 19.6351 13.845C19.9781 14.4686 20.1496 15.2004 20.1496 16.0402V19.1662C20.1496 19.4067 20.0678 19.6088 19.9041 19.7725C19.7404 19.9361 19.5383 20.018 19.2978 20.018H4.69634ZM5.50634 18.3565H18.4881V16.0402C18.4881 15.4814 18.3528 14.9992 18.0821 14.5937C17.8114 14.188 17.4015 13.8479 16.8523 13.5732C16.3588 13.3265 15.7157 13.1425 14.9228 13.0212C14.1302 12.8999 13.1559 12.8392 12.0001 12.8392C11.0661 12.8392 10.1822 12.671 9.34834 12.3345C8.51467 11.9981 7.78042 11.5365 7.14559 10.9497C6.51059 10.3629 5.99775 9.6698 5.60709 8.87046C5.21659 8.07096 4.99742 7.20813 4.94959 6.28196V3.03196C4.59409 3.6903 4.3025 4.49738 4.07484 5.45321C3.84717 6.40905 3.73334 7.28913 3.73334 8.09346C3.73334 8.9528 3.86942 9.8313 4.14159 10.729C4.41392 11.6266 4.86884 12.7795 5.50634 14.1875V18.3565ZM12.0016 9.80271C10.8768 9.80271 9.91567 9.40405 9.11834 8.60671C8.321 7.80938 7.92234 6.8478 7.92234 5.72196C7.92234 4.59613 8.32109 3.63455 9.11859 2.83721C9.91609 2.03988 10.8767 1.64121 12.0003 1.64121C13.124 1.64121 14.0855 2.03996 14.8848 2.83746C15.6842 3.6348 16.0838 4.5953 16.0838 5.71896C16.0838 6.8468 15.6847 7.80938 14.8863 8.60671C14.088 9.40405 13.1264 9.80271 12.0016 9.80271ZM12.0001 8.14121C12.6763 8.14121 13.249 7.90655 13.7183 7.43721C14.1877 6.96788 14.4223 6.39613 14.4223 5.72196C14.4223 5.0478 14.1877 4.47605 13.7183 4.00671C13.249 3.53738 12.6763 3.30271 12.0001 3.30271C11.3239 3.30271 10.7522 3.53738 10.2848 4.00671C9.8175 4.47605 9.58384 5.0478 9.58384 5.72196C9.58384 6.39613 9.8175 6.96788 10.2848 7.43721C10.7522 7.90655 11.3239 8.14121 12.0001 8.14121ZM8.23209 20.018V18.9615C8.23209 17.8795 8.60684 16.9545 9.35634 16.1867C10.1058 15.4187 11.021 15.0347 12.1018 15.0347H14.8208C15.0418 15.0347 15.2281 15.11 15.3796 15.2607C15.5309 15.4112 15.6066 15.5993 15.6066 15.825C15.6066 16.0506 15.5318 16.2373 15.3821 16.385C15.2323 16.5326 15.0452 16.6065 14.8208 16.6065H12.1018C11.4517 16.6065 10.9062 16.837 10.4653 17.2982C10.0243 17.7594 9.80384 18.3138 9.80384 18.9615V20.018H8.23209Z" fill="#040709"/>
</svg>
