<svg width="24" height="24" viewBox="0 0 24 24" fill="none" xmlns="http://www.w3.org/2000/svg">
<path d="M7.0039 18.6994C6.5439 18.6994 6.14507 18.5299 5.8074 18.1909C5.46957 17.8521 5.30065 17.4519 5.30065 16.9902V4.55369C5.30065 4.09202 5.46957 3.69177 5.8074 3.35294C6.14507 3.01394 6.5439 2.84444 7.0039 2.84444H13.5524C13.7927 2.84444 13.9947 2.92786 14.1584 3.09469C14.3221 3.26169 14.4039 3.46577 14.4039 3.70694C14.4039 3.94827 14.3221 4.14977 14.1584 4.31144C13.9947 4.47294 13.7927 4.55369 13.5524 4.55369H7.0099V16.7804C7.76407 15.8118 8.67915 15.0446 9.75515 14.4789C10.8312 13.9133 11.9887 13.6304 13.2279 13.6304C14.4462 13.6304 15.5976 13.9189 16.6819 14.4959C17.7662 15.0729 18.6857 15.8344 19.4404 16.7804C19.4404 16.7971 19.4362 16.8008 19.4279 16.7914C19.4196 16.7823 19.4237 16.7791 19.4404 16.7819V10.1837C19.4404 9.94319 19.5237 9.74111 19.6902 9.57744C19.8567 9.41377 20.0606 9.33194 20.3019 9.33194C20.5432 9.33194 20.7458 9.41377 20.9097 9.57744C21.0737 9.74111 21.1557 9.94319 21.1557 10.1837V16.9902C21.1557 17.4519 20.9862 17.8521 20.6472 18.1909C20.3083 18.5299 19.9081 18.6994 19.4464 18.6994H7.0039ZM19.0557 5.24444L18.7949 6.03944C18.7632 6.14211 18.7036 6.22361 18.6159 6.28394C18.5282 6.34427 18.429 6.37444 18.3182 6.37444C18.124 6.37444 17.9763 6.30186 17.8752 6.15669C17.774 6.01136 17.7567 5.85094 17.8234 5.67544L19.2832 1.59469C19.3175 1.48819 19.382 1.40194 19.4767 1.33594C19.5712 1.26994 19.6787 1.23694 19.7992 1.23694H20.1557C20.2745 1.23694 20.3817 1.27027 20.4772 1.33694C20.5725 1.40361 20.6368 1.48919 20.6702 1.59369L22.1319 5.71319C22.1981 5.88386 22.1797 6.03669 22.0769 6.17169C21.9739 6.30686 21.8324 6.37444 21.6524 6.37444C21.5377 6.37444 21.4366 6.34344 21.3489 6.28144C21.2614 6.21961 21.1995 6.14027 21.1632 6.04344L20.8762 5.24444H19.0557ZM19.3094 4.47069H20.6202L19.9774 2.39169L19.3094 4.47069ZM13.2234 15.2022C12.4326 15.2022 11.6755 15.3544 10.9522 15.6587C10.2287 15.963 9.60423 16.4049 9.0789 16.9842H17.3714C16.8461 16.4049 16.2212 15.963 15.4967 15.6587C14.7722 15.3544 14.0144 15.2022 13.2234 15.2022ZM13.2252 5.57319C13.9998 5.57319 14.6652 5.85119 15.2212 6.40719C15.7772 6.96319 16.0552 7.62869 16.0552 8.40369C16.0552 9.17852 15.7767 9.8386 15.2199 10.3839C14.6631 10.9294 13.9982 11.2022 13.2252 11.2022C12.4505 11.2022 11.7862 10.9308 11.2322 10.3879C10.6782 9.84527 10.4012 9.18386 10.4012 8.40369C10.4012 7.62869 10.6782 6.96319 11.2322 6.40719C11.7862 5.85119 12.4505 5.57319 13.2252 5.57319ZM13.2264 7.14494C12.8749 7.14494 12.5781 7.26719 12.3359 7.51169C12.0939 7.75602 11.9729 8.05336 11.9729 8.40369C11.9729 8.75402 12.0942 9.05027 12.3367 9.29244C12.579 9.53444 12.8753 9.65544 13.2257 9.65544C13.576 9.65544 13.8732 9.53419 14.1172 9.29169C14.3613 9.04936 14.4834 8.75302 14.4834 8.40269C14.4834 8.05236 14.3617 7.75519 14.1184 7.51119C13.8752 7.26702 13.5779 7.14494 13.2264 7.14494ZM4.2294 23.2977C3.75607 23.3557 3.33665 23.2462 2.97115 22.9692C2.60565 22.692 2.39307 22.3168 2.3334 21.8434L0.739152 9.50694C0.677319 9.03494 0.789319 8.60627 1.07515 8.22094C1.36099 7.83561 1.74215 7.61994 2.21865 7.57394L3.03065 7.49894C3.29182 7.47344 3.5074 7.54686 3.6774 7.71919C3.84724 7.89152 3.93215 8.10552 3.93215 8.36119C3.93215 8.59069 3.85999 8.78219 3.71565 8.93569C3.57132 9.08919 3.39474 9.18002 3.1859 9.20819L2.41765 9.28319L4.03065 21.6254L18.1182 19.9124C18.342 19.8791 18.5489 19.9369 18.7389 20.0857C18.9291 20.2344 19.0411 20.4242 19.0749 20.6552C19.1087 20.894 19.0552 21.1014 18.9144 21.2772C18.7734 21.4529 18.5806 21.5574 18.3359 21.5907L4.2294 23.2977Z" fill="#040709"/>
</svg>
