<svg width="24" height="24" viewBox="0 0 24 24" fill="none" xmlns="http://www.w3.org/2000/svg">
<path d="M11.2278 10.3167C11.5173 10.3167 11.7638 10.2151 11.9675 10.0117C12.171 9.80824 12.2728 9.56174 12.2728 9.27224C12.2728 8.98274 12.1701 8.73616 11.9648 8.53249C11.7593 8.32899 11.5118 8.22724 11.2223 8.22724C10.9328 8.22724 10.6872 8.32991 10.4855 8.53524C10.284 8.74074 10.1833 8.98824 10.1833 9.27774C10.1833 9.56724 10.2849 9.81283 10.4883 10.0145C10.6918 10.216 10.9383 10.3167 11.2278 10.3167ZM21.186 22.3587C20.5848 22.3587 19.6343 22.0089 18.3345 21.3092C17.0347 20.6096 15.6545 19.7435 14.194 18.711C13.844 18.8403 13.4824 18.93 13.1093 18.98C12.7359 19.03 12.3578 19.055 11.975 19.055C10.0252 19.055 8.36609 18.3707 6.99775 17.0022C5.62925 15.6339 4.945 13.9748 4.945 12.025C4.945 11.6417 4.97 11.2687 5.02 10.906C5.07 10.5433 5.15967 10.185 5.289 9.83099C4.2525 8.37449 3.38442 6.99316 2.68475 5.68699C1.98509 4.38082 1.63525 3.43132 1.63525 2.83849C1.63525 2.50549 1.74342 2.22791 1.95975 2.00574C2.17609 1.78341 2.45934 1.67224 2.8095 1.67224C3.35784 1.67224 4.08625 1.92524 4.99475 2.43124C5.90325 2.93724 6.84084 3.45724 7.8075 3.99124C8.01067 4.10091 8.13809 4.26016 8.18975 4.46899C8.24159 4.67766 8.2155 4.88366 8.1115 5.08699C8.0035 5.29416 7.8385 5.42257 7.6165 5.47224C7.39467 5.52191 7.18209 5.49474 6.97875 5.39074C6.43275 5.06141 5.87425 4.74774 5.30325 4.44974C4.73225 4.15174 4.15709 3.87141 3.57775 3.60874C3.92042 4.39341 4.30109 5.15824 4.71975 5.90324C5.13842 6.64824 5.59375 7.39374 6.08575 8.13974C6.71375 7.17041 7.53992 6.39982 8.56425 5.82799C9.58875 5.25599 10.7257 4.96999 11.975 4.96999C13.9267 4.96999 15.5904 5.65807 16.9663 7.03424C18.3421 8.41041 19.03 10.0745 19.03 12.0265C19.03 13.2573 18.744 14.3852 18.172 15.41C17.6002 16.4348 16.8316 17.2612 15.8663 17.8892C16.6111 18.3804 17.3584 18.8376 18.1083 19.2607C18.8583 19.6839 19.6339 20.0691 20.4353 20.4162C20.1686 19.8369 19.8831 19.2576 19.5788 18.6782C19.2744 18.0989 18.9596 17.5382 18.6343 16.9962C18.5263 16.7929 18.4981 16.5855 18.5498 16.374C18.6014 16.1623 18.7288 16.0035 18.932 15.8975C19.1353 15.7915 19.3469 15.7633 19.5668 15.813C19.7868 15.8627 19.9488 15.9892 20.0528 16.1925C20.5828 17.1512 21.0976 18.0877 21.5973 19.0022C22.0969 19.9167 22.3468 20.6469 22.3468 21.1927C22.3468 21.5297 22.2376 21.8083 22.0193 22.0285C21.8009 22.2487 21.5232 22.3587 21.186 22.3587ZM13.7295 14.8167C13.9552 14.8167 14.1438 14.7405 14.2955 14.588C14.447 14.4353 14.5228 14.2462 14.5228 14.0205C14.5228 13.7948 14.4461 13.6062 14.2928 13.4545C14.1393 13.303 13.9491 13.2272 13.7223 13.2272C13.4954 13.2272 13.3072 13.3039 13.1575 13.4572C13.008 13.6107 12.9333 13.8009 12.9333 14.0277C12.9333 14.2546 13.0095 14.4428 13.162 14.5925C13.3147 14.742 13.5038 14.8167 13.7295 14.8167ZM14.9748 11.3167C15.1203 11.3167 15.248 11.2628 15.358 11.155C15.4678 11.0472 15.5228 10.9206 15.5228 10.7752C15.5228 10.6297 15.4684 10.502 15.3598 10.392C15.2511 10.2822 15.1235 10.2272 14.977 10.2272C14.8303 10.2272 14.703 10.2816 14.595 10.3902C14.4872 10.4989 14.4333 10.6265 14.4333 10.773C14.4333 10.9197 14.4872 11.047 14.595 11.155C14.7028 11.2628 14.8294 11.3167 14.9748 11.3167ZM12.3023 17.2777C11.1841 16.3792 10.0658 15.3707 8.9475 14.2522C7.829 13.1339 7.08725 12.2657 6.72225 11.6477L6.69725 11.9852L6.67225 12.3227C6.69225 13.0749 6.86175 13.7654 7.18075 14.3942C7.49975 15.0231 7.91392 15.5662 8.42325 16.0237C8.93275 16.4811 9.52275 16.8244 10.1933 17.0537C10.8638 17.2831 11.5668 17.3577 12.3023 17.2777ZM14.337 16.8495C15.2395 16.4082 15.9703 15.7569 16.5295 14.8957C17.0888 14.0344 17.3685 13.0717 17.3685 12.0075C17.3685 10.496 16.8463 9.22207 15.8018 8.18574C14.7571 7.14957 13.479 6.63149 11.9675 6.63149C10.9033 6.63149 9.94475 6.90916 9.09175 7.46449C8.23892 8.01966 7.59184 8.74849 7.1505 9.65099C8.16484 11.0113 9.277 12.2952 10.487 13.5025C11.6972 14.7098 12.9805 15.8255 14.337 16.8495Z" fill="#040709"/>
</svg>
