<svg width="24" height="24" viewBox="0 0 24 24" fill="none" xmlns="http://www.w3.org/2000/svg">
<path d="M5.71435 21.1495C5.30401 21.1495 4.91993 21.0141 4.5621 20.7435C4.20443 20.473 3.96743 20.1426 3.8511 19.7522C3.43443 18.3269 3.09018 17.0966 2.81835 16.0615C2.54635 15.0265 2.3296 14.1165 2.1681 13.3315C2.0066 12.5465 1.89243 11.8513 1.8256 11.246C1.7586 10.6405 1.7251 10.0585 1.7251 9.49998C1.7251 7.92598 2.27301 6.5899 3.36885 5.49173C4.46451 4.39356 5.79993 3.84448 7.3751 3.84448H12.5268C12.9868 3.24448 13.5694 2.76115 14.2746 2.39448C14.9798 2.02782 15.7535 1.84448 16.5958 1.84448C17.0682 1.84448 17.4612 2.00432 17.7748 2.32398C18.0883 2.64348 18.2451 3.03148 18.2451 3.48798C18.2451 3.59432 18.2326 3.70057 18.2076 3.80673C18.1826 3.9129 18.1534 4.01032 18.1201 4.09898C18.0574 4.26632 17.9989 4.43615 17.9446 4.60848C17.8903 4.78098 17.8464 4.97057 17.8131 5.17723L19.9806 7.34448H21.4233C21.6638 7.34448 21.8659 7.42748 22.0296 7.59348C22.1933 7.75932 22.2751 7.96223 22.2751 8.20223V13.955C22.2751 14.1508 22.2223 14.324 22.1166 14.4745C22.0111 14.6251 21.865 14.7275 21.6784 14.7815L19.3921 15.527L18.0761 19.931C17.9649 20.2973 17.7593 20.592 17.4591 20.815C17.1591 21.038 16.8157 21.1495 16.4288 21.1495H13.6556C13.2084 21.1495 12.8197 21.0036 12.4893 20.7117C12.1592 20.4201 11.9782 20.066 11.9463 19.6495V19.1495H10.0181V19.6495C9.9861 20.066 9.8056 20.4201 9.4766 20.7117C9.1476 21.0036 8.76035 21.1495 8.31485 21.1495H5.71435ZM5.54135 19.4462H8.3446V17.4462H13.6196V19.4462H16.4228L17.9956 14.203L20.5658 13.3392V9.05373H19.2659L16.0658 5.85373C16.0825 5.5784 16.1283 5.23657 16.2033 4.82823C16.2783 4.4199 16.3825 3.96373 16.5158 3.45973C15.8112 3.64707 15.1858 3.92606 14.6398 4.29673C14.0938 4.6674 13.6948 5.0864 13.4426 5.55373H7.3746C6.2846 5.55373 5.35443 5.93907 4.5841 6.70973C3.8136 7.48023 3.42835 8.41048 3.42835 9.50048C3.42835 10.2 3.61068 11.4166 3.97535 13.1505C4.34001 14.8841 4.86201 16.9827 5.54135 19.4462ZM15.9941 11.1675C16.3031 11.1675 16.5639 11.0616 16.7766 10.85C16.9894 10.6383 17.0958 10.3769 17.0958 10.0657C17.0958 9.75457 16.9893 9.49315 16.7761 9.28148C16.5629 9.06998 16.3015 8.96423 15.9918 8.96423C15.6822 8.96423 15.4205 9.06998 15.2068 9.28148C14.9933 9.49315 14.8866 9.75457 14.8866 10.0657C14.8866 10.3769 14.9935 10.6383 15.2073 10.85C15.4212 11.0616 15.6834 11.1675 15.9941 11.1675ZM12.1696 8.72123C12.4054 8.72123 12.6018 8.64198 12.7586 8.48348C12.9156 8.32482 12.9941 8.12906 12.9941 7.89623C12.9941 7.66323 12.9156 7.46856 12.7586 7.31223C12.6018 7.1559 12.4054 7.07773 12.1696 7.07773H8.62135C8.38552 7.07773 8.19018 7.15698 8.03535 7.31548C7.88035 7.47415 7.80285 7.67065 7.80285 7.90498C7.80285 8.13782 7.88168 8.33207 8.03935 8.48773C8.19702 8.6434 8.39301 8.72123 8.62735 8.72123H12.1696Z" fill="#040709"/>
</svg>
