<svg width="24" height="24" viewBox="0 0 24 24" fill="none" xmlns="http://www.w3.org/2000/svg">
<path d="M12.0498 15.6583C12.1618 15.6583 12.2663 15.6376 12.3635 15.5963C12.4608 15.5549 12.5552 15.4886 12.6465 15.3973L15.5498 12.5C15.8331 12.2167 16.0164 11.8708 16.0998 11.4625C16.1831 11.0542 16.1414 10.6583 15.9748 10.275C15.8081 9.89168 15.5581 9.58335 15.2248 9.35001C14.8914 9.11668 14.5164 9.00001 14.0998 9.00001C13.6831 9.00001 13.3081 9.12918 12.9748 9.38751C12.6414 9.64585 12.3331 9.91668 12.0498 10.2C11.7498 9.91668 11.4373 9.64585 11.1123 9.38751C10.7873 9.12918 10.4164 9.00001 9.99976 9.00001C9.58309 9.00001 9.20392 9.11251 8.86226 9.33751C8.52059 9.56251 8.26642 9.86668 8.09976 10.25C7.93309 10.6333 7.89559 11.0292 7.98726 11.4375C8.07892 11.8458 8.26642 12.2 8.54976 12.5L11.428 15.3973C11.5193 15.4886 11.6178 15.5549 11.7235 15.5963C11.829 15.6376 11.9378 15.6583 12.0498 15.6583ZM10.441 22.1495C10.1918 22.1495 9.97059 22.0715 9.77726 21.9155C9.58392 21.7595 9.47059 21.5568 9.43726 21.3075L9.06226 18.9518C8.76942 18.8469 8.45701 18.6995 8.12501 18.5095C7.79301 18.3195 7.50359 18.1241 7.25676 17.9233L5.11276 18.9233C4.86742 19.0273 4.62017 19.0408 4.37101 18.9638C4.12167 18.8868 3.92834 18.732 3.79101 18.4995L2.25726 15.744C2.11609 15.5193 2.07567 15.2834 2.13601 15.0363C2.19634 14.7889 2.33242 14.5863 2.54426 14.4283L4.53826 12.9533C4.50892 12.8153 4.49009 12.6564 4.48176 12.4768C4.47342 12.2969 4.46926 12.138 4.46926 12C4.46926 11.862 4.47342 11.7031 4.48176 11.5233C4.49009 11.3436 4.50892 11.1848 4.53826 11.0468L2.54426 9.57776C2.32842 9.41976 2.19134 9.21709 2.13301 8.96976C2.07467 8.7226 2.11609 8.48468 2.25726 8.25601L3.79101 5.50051C3.92834 5.27585 4.12067 5.12301 4.36801 5.04201C4.61534 4.96118 4.86159 4.97276 5.10676 5.07676L7.26876 6.07676C7.51159 5.87993 7.79801 5.68751 8.12801 5.49951C8.45801 5.31151 8.76942 5.17143 9.06226 5.07926L9.43726 2.69826C9.47059 2.4451 9.58392 2.23951 9.77726 2.08151C9.97059 1.92351 10.1918 1.84451 10.441 1.84451H13.5585C13.8077 1.84451 14.0289 1.92351 14.2223 2.08151C14.4156 2.23951 14.5289 2.4451 14.5623 2.69826L14.9373 5.05426C15.2301 5.1631 15.5457 5.30735 15.884 5.48701C16.2223 5.66668 16.5086 5.86326 16.7428 6.07676L18.8868 5.07676C19.1321 4.97276 19.3752 4.96118 19.616 5.04201C19.857 5.12301 20.0462 5.27585 20.1835 5.50051L21.748 8.25601C21.8853 8.48468 21.9248 8.72676 21.8665 8.98226C21.8082 9.23793 21.6711 9.43643 21.4553 9.57776L19.4553 10.9968C19.4846 11.1514 19.5044 11.3186 19.5148 11.4983C19.5251 11.6781 19.5303 11.8453 19.5303 12C19.5303 12.1547 19.5251 12.3178 19.5148 12.4893C19.5044 12.6606 19.4846 12.8236 19.4553 12.9783L21.4553 14.4223C21.6711 14.5636 21.8082 14.7621 21.8665 15.0178C21.9248 15.2733 21.8853 15.5153 21.748 15.744L20.2085 18.4995C20.0712 18.7282 19.8788 18.8819 19.6315 18.9608C19.3842 19.0398 19.1379 19.0273 18.8928 18.9233L16.7368 17.9233C16.4899 18.1241 16.2057 18.3227 15.884 18.519C15.5623 18.7153 15.2468 18.8596 14.9373 18.9518L14.5623 21.3075C14.5289 21.5568 14.4156 21.7595 14.2223 21.9155C14.0289 22.0715 13.8077 22.1495 13.5585 22.1495H10.441ZM10.9475 20.4463H13.046L13.402 17.6523C13.956 17.5189 14.4818 17.3106 14.9793 17.0273C15.4769 16.7439 15.9258 16.3963 16.3258 15.9843L18.9758 17.1343L19.922 15.412L17.584 13.699C17.6507 13.4117 17.7058 13.1285 17.7495 12.8495C17.7932 12.5705 17.815 12.2873 17.815 12C17.815 11.7127 17.7973 11.4295 17.762 11.1505C17.7267 10.8715 17.6673 10.5883 17.584 10.301L19.928 8.58801L18.9758 6.86576L16.3318 8.01576C15.9484 7.57443 15.5111 7.20493 15.0198 6.90726C14.5286 6.60959 13.9893 6.4211 13.402 6.34176L13.052 3.55376H10.9475L10.6035 6.34176C10.0288 6.45443 9.49176 6.65543 8.99226 6.94476C8.49259 7.2341 8.04909 7.5911 7.66176 8.01576L5.02376 6.86576L4.07151 8.58801L6.40351 10.295C6.33684 10.5823 6.28167 10.8665 6.23801 11.1475C6.19434 11.4285 6.17251 11.7127 6.17251 12C6.17251 12.2873 6.19434 12.5725 6.23801 12.8555C6.28167 13.1385 6.33684 13.4217 6.40351 13.705L4.07151 15.412L5.02376 17.1343L7.66176 15.9843C8.06576 16.3923 8.51759 16.7399 9.01726 17.0273C9.51676 17.3146 10.0455 17.5249 10.6035 17.6583L10.9475 20.4463Z" fill="#040709"/>
</svg>
