<svg width="24" height="24" viewBox="0 0 24 24" fill="none" xmlns="http://www.w3.org/2000/svg">
<path d="M5.90416 22.0898V17.8098C5.32016 17.5391 4.78332 17.1768 4.29366 16.7228C3.80399 16.2688 3.38216 15.7439 3.02816 15.1483C2.67416 14.5528 2.39932 13.903 2.20366 13.199C2.00799 12.495 1.91016 11.7625 1.91016 11.0015C1.91016 8.33936 2.85207 6.15861 4.73591 4.45928C6.61957 2.75995 9.04149 1.91028 12.0017 1.91028C14.9617 1.91028 17.383 2.75995 19.2657 4.45928C21.1483 6.15861 22.0897 8.33936 22.0897 11.0015C22.0897 11.7625 21.9918 12.495 21.7962 13.199C21.6005 13.903 21.3257 14.5528 20.9717 15.1483C20.6177 15.7439 20.1958 16.2688 19.7062 16.7228C19.2165 17.1768 18.6797 17.5391 18.0957 17.8098V22.0898H5.90416ZM7.61341 20.3805H9.31566V17.8805H10.8634V20.3805H13.1364V17.8805H14.6842V20.3805H16.3864V16.795C17.0031 16.5919 17.5572 16.3049 18.0489 15.9343C18.5406 15.5636 18.9604 15.1271 19.3084 14.6248C19.6564 14.1224 19.9231 13.5646 20.1084 12.9513C20.2937 12.3378 20.3864 11.6886 20.3864 11.0038C20.3864 8.80195 19.6136 7.01978 18.0679 5.65728C16.5222 4.29478 14.5001 3.61353 12.0014 3.61353C9.50291 3.61353 7.48132 4.29486 5.93666 5.65753C4.39182 7.0202 3.61941 8.80261 3.61941 11.0048C3.61941 11.6896 3.71107 12.3386 3.89441 12.9518C4.07774 13.5648 4.34341 14.1224 4.69141 14.6248C5.03941 15.1271 5.45924 15.5636 5.95091 15.9343C6.44257 16.3049 6.99674 16.5919 7.61341 16.795V20.3805ZM10.4102 15.1675H13.5897L11.9999 11.988L10.4102 15.1675ZM8.50316 12.5418C9.00032 12.5418 9.42366 12.366 9.77316 12.0145C10.1228 11.663 10.2977 11.2404 10.2977 10.7468C10.2977 10.2496 10.1224 9.82628 9.77191 9.47678C9.42124 9.12711 8.99774 8.95228 8.50141 8.95228C8.00507 8.95228 7.58207 9.12753 7.23241 9.47803C6.88291 9.8287 6.70816 10.2522 6.70816 10.7485C6.70816 11.2449 6.88391 11.6679 7.23541 12.0175C7.58691 12.367 8.00949 12.5418 8.50316 12.5418ZM15.5032 12.5418C16.0003 12.5418 16.4237 12.366 16.7732 12.0145C17.1228 11.663 17.2977 11.2404 17.2977 10.7468C17.2977 10.2496 17.1224 9.82628 16.7719 9.47678C16.4212 9.12711 15.9977 8.95228 15.5014 8.95228C15.0051 8.95228 14.5821 9.12753 14.2324 9.47803C13.8829 9.8287 13.7082 10.2522 13.7082 10.7485C13.7082 11.2449 13.8839 11.6679 14.2354 12.0175C14.5869 12.367 15.0095 12.5418 15.5032 12.5418Z" fill="#040709"/>
</svg>
