<svg xmlns="http://www.w3.org/2000/svg" viewBox="0 0 24 24" fill="currentColor">
  <path d="M9.813 2.25a.75.75 0 0 1 .712.513l1.12 3.36a4.5 4.5 0 0 0 2.857 2.857l3.36 1.12a.75.75 0 0 1 0 1.424l-3.36 1.12a4.5 4.5 0 0 0-2.857 2.857l-1.12 3.36a.75.75 0 0 1-1.424 0l-1.12-3.36a4.5 4.5 0 0 0-2.857-2.857l-3.36-1.12a.75.75 0 0 1 0-1.424l3.36-1.12a4.5 4.5 0 0 0 2.857-2.857l1.12-3.36a.75.75 0 0 1 .712-.513ZM18.259 8.715a.75.75 0 0 1 1.394 0l.477 1.192a2.25 2.25 0 0 0 1.263 1.263l1.192.477a.75.75 0 0 1 0 1.394l-1.192.477a2.25 2.25 0 0 0-1.263 1.263l-.477 1.192a.75.75 0 0 1-1.394 0l-.477-1.192a2.25 2.25 0 0 0-1.263-1.263l-1.192-.477a.75.75 0 0 1 0-1.394l1.192-.477a2.25 2.25 0 0 0 1.263-1.263l.477-1.192Z"/>
</svg>
