<svg width="24" height="24" viewBox="0 0 24 24" fill="none" xmlns="http://www.w3.org/2000/svg">
<path d="M4.7251 20.1375C3.68126 20.1375 2.7926 19.766 2.0591 19.023C1.3256 18.2802 0.943431 17.3807 0.912598 16.3245C0.912598 16.1709 0.920931 16.016 0.937598 15.86C0.954264 15.704 0.981264 15.549 1.0186 15.395L3.1186 6.9893C3.35993 6.0613 3.85135 5.30822 4.59285 4.73005C5.33435 4.15172 6.17843 3.86255 7.1251 3.86255H16.8751C17.8218 3.86255 18.6658 4.15172 19.4073 4.73005C20.1488 5.30822 20.6423 6.0613 20.8876 6.9893L22.9876 15.3893C23.0209 15.5471 23.0501 15.7073 23.0751 15.8698C23.1001 16.0321 23.1126 16.1921 23.1126 16.3498C23.1126 17.4061 22.7372 18.3015 21.9863 19.036C21.2355 19.7704 20.3318 20.1375 19.2751 20.1375C18.5473 20.1375 17.8723 19.9472 17.2503 19.5665C16.6285 19.186 16.1616 18.6671 15.8496 18.0098L15.1496 16.5598C15.0783 16.4171 14.9717 16.311 14.8298 16.2415C14.688 16.1722 14.5364 16.1375 14.3751 16.1375H9.6251C9.46376 16.1375 9.31218 16.1722 9.17035 16.2415C9.02851 16.311 8.92193 16.4171 8.8506 16.5598L8.1506 18.0098C7.8386 18.6671 7.37151 19.186 6.74935 19.5665C6.12718 19.9472 5.45243 20.1375 4.7251 20.1375ZM4.7916 18.4343C5.1856 18.4343 5.54776 18.3292 5.8781 18.119C6.20843 17.9087 6.46251 17.6257 6.64035 17.27L7.34035 15.845C7.55685 15.4007 7.86751 15.0545 8.27235 14.8065C8.67718 14.5584 9.1281 14.4343 9.6251 14.4343H14.3751C14.8719 14.4343 15.3217 14.5626 15.7243 14.8193C16.127 15.076 16.4492 15.4179 16.6908 15.845L17.3908 17.27C17.5647 17.6257 17.8168 17.9087 18.1471 18.119C18.4774 18.3292 18.8389 18.4343 19.2316 18.4343C19.8106 18.4343 20.31 18.2361 20.7298 17.8398C21.1495 17.4433 21.3677 16.955 21.3843 16.375C21.3843 16.2884 21.3593 16.0944 21.3093 15.793L19.2093 7.41805C19.08 6.88388 18.8011 6.44163 18.3726 6.0913C17.9443 5.74097 17.4451 5.5658 16.8751 5.5658H7.1251C6.56443 5.5658 6.06743 5.73672 5.6341 6.07855C5.2006 6.42022 4.91951 6.86671 4.79085 7.41805L2.69085 15.793C2.68218 15.8397 2.65718 16.0254 2.61585 16.35C2.61585 16.9407 2.82893 17.4358 3.2551 17.8353C3.6811 18.2346 4.19326 18.4343 4.7916 18.4343ZM13.5046 10.75C13.7183 10.75 13.8959 10.6777 14.0376 10.533C14.1793 10.3885 14.2501 10.2094 14.2501 9.99555C14.2501 9.78188 14.1778 9.60422 14.0331 9.46255C13.8886 9.32088 13.7094 9.25005 13.4956 9.25005C13.2819 9.25005 13.1043 9.32238 12.9626 9.46705C12.8209 9.61155 12.7501 9.79071 12.7501 10.0045C12.7501 10.2182 12.8224 10.3959 12.9671 10.5375C13.1116 10.6792 13.2908 10.75 13.5046 10.75ZM15.5046 8.75005C15.7183 8.75005 15.8959 8.67772 16.0376 8.53305C16.1793 8.38855 16.2501 8.20938 16.2501 7.99555C16.2501 7.78188 16.1778 7.60422 16.0331 7.46255C15.8886 7.32088 15.7094 7.25005 15.4956 7.25005C15.2819 7.25005 15.1043 7.32238 14.9626 7.46705C14.8209 7.61155 14.7501 7.79071 14.7501 8.00455C14.7501 8.21821 14.8224 8.39588 14.9671 8.53755C15.1116 8.67922 15.2908 8.75005 15.5046 8.75005ZM15.5046 12.75C15.7183 12.75 15.8959 12.6777 16.0376 12.533C16.1793 12.3885 16.2501 12.2094 16.2501 11.9955C16.2501 11.7819 16.1778 11.6042 16.0331 11.4625C15.8886 11.3209 15.7094 11.25 15.4956 11.25C15.2819 11.25 15.1043 11.3224 14.9626 11.467C14.8209 11.6115 14.7501 11.7907 14.7501 12.0045C14.7501 12.2182 14.8224 12.3959 14.9671 12.5375C15.1116 12.6792 15.2908 12.75 15.5046 12.75ZM17.5046 10.75C17.7183 10.75 17.8959 10.6777 18.0376 10.533C18.1793 10.3885 18.2501 10.2094 18.2501 9.99555C18.2501 9.78188 18.1778 9.60422 18.0331 9.46255C17.8886 9.32088 17.7094 9.25005 17.4956 9.25005C17.2819 9.25005 17.1043 9.32238 16.9626 9.46705C16.8209 9.61155 16.7501 9.79071 16.7501 10.0045C16.7501 10.2182 16.8224 10.3959 16.9671 10.5375C17.1116 10.6792 17.2908 10.75 17.5046 10.75ZM8.5031 12.375C8.68443 12.375 8.83343 12.316 8.9501 12.198C9.06676 12.0799 9.1251 11.9305 9.1251 11.75V10.625H10.2501C10.4306 10.625 10.5799 10.5657 10.6981 10.447C10.8161 10.3285 10.8751 10.1785 10.8751 9.99705C10.8751 9.81572 10.8161 9.66672 10.6981 9.55005C10.5799 9.43338 10.4306 9.37505 10.2501 9.37505H9.1251V8.25005C9.1251 8.06955 9.06576 7.92022 8.9471 7.80205C8.8286 7.68405 8.6786 7.62505 8.4971 7.62505C8.31576 7.62505 8.16676 7.68405 8.0501 7.80205C7.93343 7.92022 7.8751 8.06955 7.8751 8.25005V9.37505H6.7501C6.5696 9.37505 6.42026 9.43438 6.3021 9.55305C6.1841 9.67155 6.1251 9.82155 6.1251 10.003C6.1251 10.1844 6.1841 10.3334 6.3021 10.45C6.42026 10.5667 6.5696 10.625 6.7501 10.625H7.8751V11.75C7.8751 11.9305 7.93443 12.0799 8.0531 12.198C8.1716 12.316 8.3216 12.375 8.5031 12.375Z" fill="#040709"/>
</svg>
