<svg width="24" height="24" viewBox="0 0 24 24" fill="none" xmlns="http://www.w3.org/2000/svg">
<path d="M12 16.65L7.64674 21.0032C7.47674 21.1772 7.27783 21.2632 7.04999 21.2612C6.82216 21.2592 6.62324 21.1732 6.45324 21.0032C6.28324 20.8332 6.19824 20.6353 6.19824 20.4095C6.19824 20.1836 6.28324 19.9837 6.45324 19.8097L10.8065 15.4565C11.1337 15.1333 11.5315 14.9717 12 14.9717C12.4685 14.9717 12.8663 15.1333 13.1935 15.4565L17.5467 19.8097C17.7167 19.9837 17.8017 20.1846 17.8017 20.4125C17.8017 20.6403 17.7167 20.8372 17.5467 21.0032C17.3767 21.1772 17.1778 21.2642 16.95 21.2642C16.7222 21.2642 16.5232 21.1772 16.3532 21.0032L12 16.65ZM12 10.3625L7.64674 14.7157C7.47674 14.8857 7.27783 14.9707 7.04999 14.9707C6.82216 14.9707 6.62324 14.8857 6.45324 14.7157C6.28324 14.5457 6.19824 14.3468 6.19824 14.119C6.19824 13.8911 6.28324 13.6922 6.45324 13.5222L10.8065 9.16898C11.1337 8.84581 11.5315 8.68423 12 8.68423C12.4685 8.68423 12.8663 8.84581 13.1935 9.16898L17.5467 13.5222C17.7167 13.6922 17.8017 13.8921 17.8017 14.122C17.8017 14.3518 17.7167 14.5497 17.5467 14.7157C17.3767 14.8857 17.1778 14.9707 16.95 14.9707C16.7222 14.9707 16.5232 14.8857 16.3532 14.7157L12 10.3625ZM12 4.07498L7.64674 8.43423C7.47674 8.60423 7.27783 8.68823 7.04999 8.68623C6.82216 8.68423 6.62324 8.60023 6.45324 8.43423C6.28324 8.26423 6.19824 8.06531 6.19824 7.83748C6.19824 7.60965 6.28324 7.41073 6.45324 7.24073L10.8065 2.88748C11.1337 2.56031 11.5315 2.39673 12 2.39673C12.4685 2.39673 12.8663 2.56031 13.1935 2.88748L17.5467 7.24073C17.7167 7.41073 17.8017 7.60965 17.8017 7.83748C17.8017 8.06531 17.7167 8.26423 17.5467 8.43423C17.3767 8.60423 17.1778 8.68923 16.95 8.68923C16.7222 8.68923 16.5232 8.60423 16.3532 8.43423L12 4.07498Z" fill="#040709"/>
</svg>
