<svg width="24" height="24" viewBox="0 0 24 24" fill="none" xmlns="http://www.w3.org/2000/svg">
<path d="M19.1653 21.8598L16.143 18.8315L14.438 20.5365C14.1294 20.8452 13.8445 20.8787 13.5835 20.637C13.3224 20.3954 13.0938 20.1785 12.8978 19.9865C12.5746 19.6594 12.413 19.2615 12.413 18.793C12.413 18.3245 12.5746 17.9267 12.8978 17.5995L17.6995 12.7978C18.0267 12.4746 18.4245 12.313 18.893 12.313C19.3615 12.313 19.7594 12.4746 20.0865 12.7978C20.2785 12.9938 20.4954 13.2224 20.737 13.4835C20.9787 13.7445 20.9452 14.0294 20.6365 14.338L18.9315 16.043L21.9348 19.0653C22.1048 19.2351 22.1898 19.436 22.1898 19.668C22.1898 19.8999 22.1048 20.1008 21.9348 20.2708L20.3708 21.8598C20.2008 22.0298 19.9999 22.1148 19.768 22.1148C19.536 22.1148 19.3351 22.0298 19.1653 21.8598ZM21.8468 6.19678L10.7588 17.2848L11.2158 17.7668C11.692 18.2988 11.795 18.7977 11.525 19.2635C11.255 19.7295 10.9288 20.1539 10.5463 20.5365C10.4043 20.6785 10.2402 20.7495 10.054 20.7495C9.86805 20.7495 9.70405 20.6785 9.56205 20.5365L7.85105 18.8315L4.8288 21.8598C4.65896 22.0298 4.45905 22.1148 4.22905 22.1148C3.99921 22.1148 3.7993 22.0298 3.6293 21.8598L2.0403 20.2708C1.8663 20.1008 1.7793 19.8999 1.7793 19.668C1.7793 19.436 1.8663 19.2351 2.0403 19.0653L5.06855 16.043L3.35755 14.338C3.21555 14.192 3.14455 14.027 3.14455 13.843C3.14455 13.6589 3.21555 13.4938 3.35755 13.3478C3.74021 12.9653 4.16455 12.639 4.63055 12.369C5.09638 12.0992 5.5973 12.2043 6.1333 12.6843L6.6153 13.1413L17.4425 2.30828C17.5957 2.15495 17.7811 2.03161 17.9988 1.93828C18.2163 1.84495 18.439 1.79828 18.6668 1.79828H21.25C21.4945 1.79828 21.6976 1.87911 21.8593 2.04078C22.021 2.20245 22.1018 2.40553 22.1018 2.65003V5.60603C22.1018 5.71803 22.0821 5.82161 22.0428 5.91678C22.0035 6.01211 21.9381 6.10545 21.8468 6.19678ZM6.28155 10.331L2.4083 6.45753C2.25496 6.30436 2.13163 6.11895 2.0383 5.90128C1.94496 5.68378 1.8983 5.46111 1.8983 5.23328V2.65003C1.8983 2.40553 1.97913 2.20245 2.1408 2.04078C2.30246 1.87911 2.50555 1.79828 2.75005 1.79828H5.3333C5.56513 1.79828 5.7888 1.84495 6.0043 1.93828C6.21996 2.03161 6.40438 2.15495 6.55755 2.30828L10.431 6.18753C10.597 6.35353 10.68 6.54745 10.68 6.76928C10.68 6.99128 10.597 7.18519 10.431 7.35103C10.265 7.52103 10.0701 7.60503 9.8463 7.60303C9.6223 7.60103 9.42738 7.51703 9.26155 7.35103L5.35105 3.45978H3.5598V5.24503L7.45105 9.16753C7.61705 9.33736 7.69905 9.53228 7.69705 9.75228C7.69505 9.97211 7.61105 10.165 7.44505 10.331C7.27921 10.5009 7.0853 10.5858 6.8633 10.5858C6.64146 10.5858 6.44755 10.5009 6.28155 10.331ZM9.56905 16.0723L20.4403 5.24503V3.45978H18.655L7.7778 14.281L9.56905 16.0723Z" fill="#040709"/>
</svg>
