<svg width="24" height="24" viewBox="0 0 24 24" fill="none" xmlns="http://www.w3.org/2000/svg">
<path d="M11.0505 10.3L4.37226 7.45501C4.00892 7.28717 3.78834 7.01376 3.71051 6.63476C3.63251 6.25576 3.73467 5.92059 4.01701 5.62926L4.37226 5.26251C4.51359 5.12117 4.67067 5.02867 4.84351 4.98501C5.01617 4.94134 5.19134 4.93617 5.36901 4.96951L14.719 6.59451L18.026 3.29951C18.396 2.92951 18.8418 2.74451 19.3633 2.74451C19.8849 2.74451 20.3307 2.92951 20.7005 3.29951C21.0705 3.66934 21.2555 4.11509 21.2555 4.63676C21.2555 5.15826 21.0705 5.60401 20.7005 5.97401L17.3995 9.27501L19.0305 18.631C19.0638 18.804 19.0587 18.9781 19.015 19.1533C18.9713 19.3283 18.8788 19.4864 18.7375 19.6278L18.3648 19.9775C18.0734 20.2675 17.7378 20.373 17.358 20.294C16.978 20.215 16.709 19.9929 16.551 19.6278L13.7 12.9495L10.8005 15.874L11.3755 19.125C11.4128 19.2802 11.4073 19.4289 11.359 19.5713C11.3105 19.7136 11.2317 19.8395 11.1225 19.949L10.7445 20.334C10.53 20.549 10.2692 20.6347 9.96201 20.591C9.65467 20.5473 9.42442 20.3866 9.27126 20.1088L7.41526 16.5848L3.89126 14.7288C3.61342 14.5756 3.45267 14.3453 3.40901 14.038C3.36534 13.7308 3.45101 13.47 3.66601 13.2555L4.04501 12.8775C4.15451 12.7683 4.28142 12.6895 4.42576 12.641C4.57009 12.5927 4.71984 12.5872 4.87501 12.6245L8.12601 13.1995L11.0505 10.3Z" fill="#040709"/>
</svg>
