<svg width="24" height="24" viewBox="0 0 24 24" fill="none" xmlns="http://www.w3.org/2000/svg">
<path d="M4.70234 21.1497C4.46184 21.1497 4.25975 21.0675 4.09609 20.903C3.93242 20.7385 3.85059 20.5354 3.85059 20.2937C3.85059 20.0521 3.93242 19.8504 4.09609 19.6887C4.25975 19.5272 4.46184 19.4465 4.70234 19.4465H19.2978C19.5383 19.4465 19.7414 19.5287 19.9071 19.6932C20.0728 19.8577 20.1556 20.0608 20.1556 20.3025C20.1556 20.5441 20.0728 20.7457 19.9071 20.9072C19.7414 21.0689 19.5383 21.1497 19.2978 21.1497H4.70234ZM11.9968 17.6225C11.887 17.6225 11.7825 17.6018 11.6833 17.5605C11.584 17.5191 11.4887 17.4529 11.3973 17.3617L7.60334 13.5677C7.43334 13.3977 7.3525 13.1946 7.36084 12.9585C7.36917 12.7221 7.45834 12.5191 7.62834 12.3492C7.79834 12.1792 8.00142 12.0942 8.23759 12.0942C8.47375 12.0942 8.67684 12.1792 8.84684 12.3492L11.1483 14.6757V3.70248C11.1483 3.46198 11.2307 3.25889 11.3953 3.09323C11.5598 2.92756 11.7629 2.84473 12.0046 2.84473C12.2461 2.84473 12.4477 2.92756 12.6093 3.09323C12.771 3.25889 12.8518 3.46198 12.8518 3.70248V14.6757L15.0783 12.4492C15.2483 12.2792 15.4473 12.1984 15.6751 12.2067C15.9029 12.2151 16.1018 12.3042 16.2718 12.4742C16.4418 12.6441 16.5268 12.8471 16.5268 13.0835C16.5268 13.3196 16.4418 13.5227 16.2718 13.6927L12.6028 17.3617C12.5115 17.4529 12.4151 17.5191 12.3136 17.5605C12.2121 17.6018 12.1065 17.6225 11.9968 17.6225Z" fill="#040709"/>
</svg>
