<svg width="24" height="24" viewBox="0 0 24 24" fill="none" xmlns="http://www.w3.org/2000/svg">
<path d="M12.0001 22.1495C10.5966 22.1495 9.27759 21.883 8.04309 21.35C6.80859 20.817 5.73342 20.0893 4.81759 19.167C3.90159 18.2448 3.17809 17.1631 2.64709 15.9218C2.11609 14.6804 1.85059 13.3573 1.85059 11.9525C1.85059 10.5475 2.11609 9.23193 2.64709 8.00576C3.17809 6.77943 3.90159 5.70935 4.81759 4.79551C5.73342 3.88151 6.80884 3.16118 8.04384 2.63451C9.279 2.10785 10.5987 1.84451 12.0028 1.84451C12.437 1.84451 12.8596 1.87051 13.2706 1.92251C13.6816 1.97451 14.1014 2.06285 14.5301 2.18751C14.7539 2.24985 14.9157 2.39485 15.0153 2.62251C15.115 2.85035 15.1172 3.07718 15.0218 3.30301C14.9265 3.52885 14.7774 3.68643 14.5746 3.77576C14.3716 3.8651 14.1562 3.87243 13.9283 3.79776C13.6055 3.69776 13.2798 3.6331 12.9513 3.60376C12.6227 3.57443 12.2957 3.55976 11.9703 3.55976C11.2952 4.14543 10.7947 4.85868 10.4688 5.69951C10.143 6.54035 9.86342 7.39851 9.63009 8.27401H13.7978C14.0112 8.27401 14.1875 8.34426 14.3268 8.48476C14.4662 8.62526 14.5358 8.80301 14.5358 9.01801C14.5358 9.23301 14.4656 9.41076 14.3251 9.55126C14.1846 9.69176 14.0071 9.76201 13.7926 9.76201H9.34984C9.2995 10.1273 9.26175 10.4927 9.23659 10.858C9.21159 11.2233 9.19909 11.5873 9.19909 11.95C9.19909 12.3293 9.21142 12.7061 9.23609 13.0803C9.26092 13.4546 9.29809 13.8322 9.34759 14.213H14.6761C14.7094 13.9242 14.7386 13.6194 14.7636 13.2988C14.7886 12.9783 14.8074 12.6168 14.8201 12.2143C14.8163 11.9976 14.8852 11.8184 15.0268 11.6768C15.1685 11.5351 15.3477 11.4643 15.5643 11.4643C15.781 11.4643 15.9592 11.5351 16.0988 11.6768C16.2385 11.8184 16.3103 11.9976 16.3143 12.2143C16.2977 12.6181 16.2768 12.979 16.2518 13.297C16.2268 13.6148 16.2016 13.9202 16.1761 14.213H20.1411C20.2159 13.9417 20.2743 13.656 20.3163 13.356C20.3585 13.0558 20.3855 12.7111 20.3973 12.3218C20.422 12.0773 20.5161 11.8732 20.6796 11.7095C20.8433 11.546 21.0503 11.4643 21.3008 11.4643C21.5435 11.4643 21.7457 11.5502 21.9073 11.722C22.0688 11.894 22.1393 12.1023 22.1186 12.3468C22.0273 13.8206 21.6974 15.1625 21.1291 16.3725C20.5609 17.5825 19.824 18.6155 18.9183 19.4715C18.0127 20.3275 16.9694 20.9878 15.7886 21.4525C14.6079 21.9172 13.3451 22.1495 12.0001 22.1495ZM3.85184 14.213H7.79909C7.76175 13.8337 7.73575 13.4565 7.72109 13.0815C7.70642 12.7065 7.69909 12.3293 7.69909 11.95C7.69909 11.5873 7.70742 11.2233 7.72409 10.858C7.74075 10.4927 7.77409 10.1273 7.82409 9.76201H3.85384C3.75384 10.1273 3.67884 10.4885 3.62884 10.8455C3.57884 11.2025 3.55384 11.5717 3.55384 11.953C3.55384 12.3343 3.57867 12.7112 3.62834 13.0835C3.678 13.4558 3.7525 13.8323 3.85184 14.213ZM9.89909 20.2023C9.43709 19.4983 9.06325 18.7681 8.77759 18.0118C8.49192 17.2554 8.25942 16.4832 8.08009 15.695H4.35384C4.93434 16.7958 5.70784 17.7243 6.67434 18.4803C7.64084 19.2363 8.71575 19.8103 9.89909 20.2023ZM4.34784 8.27401H8.10509C8.26775 7.48985 8.49192 6.72376 8.77759 5.97576C9.06325 5.22776 9.42875 4.51009 9.87409 3.82276C8.66142 4.11876 7.57367 4.65643 6.61084 5.43576C5.64817 6.21526 4.89384 7.16135 4.34784 8.27401ZM11.9941 20.5083C12.6194 19.8543 13.1218 19.1126 13.5011 18.2833C13.8804 17.4539 14.1765 16.5912 14.3893 15.695H9.63009C9.82609 16.5872 10.1128 17.4458 10.4901 18.2708C10.8674 19.0958 11.3688 19.8416 11.9941 20.5083ZM14.1143 20.1773C15.2937 19.8178 16.3647 19.2558 17.3273 18.4915C18.29 17.7272 19.061 16.795 19.6403 15.695H15.9393C15.7598 16.4832 15.5253 17.2544 15.2356 18.0088C14.9459 18.7631 14.5722 19.4859 14.1143 20.1773ZM17.0056 9.84451C16.7723 9.84451 16.5723 9.76118 16.4056 9.59451C16.2389 9.42785 16.1556 9.22785 16.1556 8.99451V5.69451C16.1556 5.46518 16.2389 5.26618 16.4056 5.09751C16.5723 4.92885 16.7723 4.84451 17.0056 4.84451H17.1556V3.84451C17.1556 3.29451 17.3504 2.82368 17.7401 2.43201C18.1298 2.04035 18.6006 1.84451 19.1526 1.84451C19.7046 1.84451 20.1764 2.04035 20.5681 2.43201C20.9598 2.82368 21.1556 3.29451 21.1556 3.84451V4.84451H21.3056C21.5349 4.84451 21.7339 4.92885 21.9026 5.09751C22.0713 5.26618 22.1556 5.46518 22.1556 5.69451V8.99451C22.1556 9.22785 22.0713 9.42785 21.9026 9.59451C21.7339 9.76118 21.5349 9.84451 21.3056 9.84451H17.0056ZM18.1556 4.84451H20.1556V3.84451C20.1556 3.56518 20.0588 3.32868 19.8651 3.13501C19.6714 2.94135 19.4339 2.84451 19.1526 2.84451C18.8713 2.84451 18.6348 2.93718 18.4431 3.12251C18.2514 3.30785 18.1556 3.53185 18.1556 3.79451V4.84451Z" fill="#040709"/>
</svg>
