<svg width="24" height="24" viewBox="0 0 24 24" fill="none" xmlns="http://www.w3.org/2000/svg">
<path d="M12.4882 23.257C12.139 23.257 11.8354 23.132 11.5774 22.8818C11.3194 22.6316 11.1904 22.3344 11.1904 21.9903C11.1904 21.8171 11.2216 21.6563 11.2839 21.5078C11.3463 21.3594 11.4378 21.2249 11.5584 21.1043L12.2084 20.5103C12.2958 20.4356 12.3876 20.3983 12.4839 20.3983C12.5803 20.3983 12.675 20.4356 12.7682 20.5103L13.4182 21.1043C13.5349 21.2249 13.6244 21.3594 13.6867 21.5075C13.749 21.6557 13.7802 21.8163 13.7802 21.9893C13.7802 22.3353 13.6522 22.633 13.3962 22.8825C13.1402 23.1322 12.8375 23.257 12.4882 23.257ZM8.44844 21.0565C8.29927 20.9087 8.22469 20.7433 8.22469 20.5603C8.22469 20.3773 8.29927 20.2112 8.44844 20.062L10.3484 18.162C10.4938 18.0167 10.6586 17.944 10.8429 17.944C11.0271 17.944 11.1919 18.0177 11.3372 18.165C11.4825 18.3122 11.5552 18.4769 11.5552 18.6593C11.5552 18.8414 11.4825 19.0072 11.3372 19.1565L9.41219 21.0815C9.26319 21.2269 9.10169 21.2954 8.92769 21.287C8.75352 21.2787 8.59377 21.2019 8.44844 21.0565ZM15.2729 19.8245L14.4622 19.0075C14.3709 18.9155 14.3252 18.8118 14.3252 18.6963C14.3252 18.5806 14.3709 18.4771 14.4622 18.3858L15.2729 17.569C15.3649 17.4777 15.4688 17.432 15.5844 17.432C15.6999 17.432 15.8034 17.4777 15.8947 17.569L16.7117 18.3858C16.8029 18.4779 16.8484 18.5818 16.8484 18.6973C16.8484 18.813 16.8029 18.9164 16.7117 19.0075L15.8947 19.8245C15.8027 19.9159 15.6989 19.9615 15.5834 19.9615C15.4678 19.9615 15.3643 19.9159 15.2729 19.8245ZM7.44844 19.0075L6.63169 19.8245C6.53969 19.9159 6.43585 19.9615 6.32019 19.9615C6.20469 19.9615 6.10127 19.9159 6.00994 19.8245L5.19319 19.0075C5.10185 18.9155 5.05619 18.8118 5.05619 18.6963C5.05619 18.5806 5.10185 18.4771 5.19319 18.3858L6.00994 17.569C6.10194 17.4777 6.20577 17.432 6.32144 17.432C6.43694 17.432 6.54035 17.4777 6.63169 17.569L7.44844 18.3858C7.53977 18.4779 7.58544 18.5818 7.58544 18.6973C7.58544 18.813 7.53977 18.9164 7.44844 19.0075ZM7.25019 15.5358C5.77419 15.5358 4.51327 15.0124 3.46744 13.9655C2.42144 12.9185 1.89844 11.6581 1.89844 10.1843C1.89844 8.84762 2.37227 7.6547 3.31994 6.60553C4.2676 5.5562 5.44744 4.97553 6.85944 4.86353C7.4061 3.9302 8.12269 3.1907 9.00919 2.64503C9.89569 2.09953 10.8923 1.82678 11.9989 1.82678C13.5244 1.82678 14.8067 2.30687 15.8457 3.26703C16.8845 4.22737 17.5306 5.41786 17.7839 6.83853C19.1126 6.9212 20.1644 7.38295 20.9394 8.22378C21.7144 9.06462 22.1019 10.0504 22.1019 11.1813C22.1019 12.3778 21.6799 13.4027 20.8359 14.256C19.9919 15.1092 18.9634 15.5358 17.7502 15.5358H7.25019ZM7.25019 13.8268H17.7502C18.487 13.8268 19.1126 13.5669 19.6269 13.047C20.1413 12.5274 20.3984 11.9064 20.3984 11.1843C20.3984 10.4454 20.1413 9.81937 19.6269 9.30603C19.1126 8.79253 18.487 8.53578 17.7502 8.53578H16.1484V7.68428C16.1484 6.52695 15.7464 5.5462 14.9424 4.74203C14.1383 3.93787 13.1575 3.53578 12.0002 3.53578C11.1715 3.53578 10.4114 3.75961 9.71969 4.20728C9.02785 4.65495 8.51994 5.2592 8.19594 6.02003L7.96844 6.53578H7.20619C6.19885 6.56962 5.34627 6.93853 4.64844 7.64253C3.95077 8.34653 3.60194 9.19378 3.60194 10.1843C3.60194 11.1859 3.9586 12.0434 4.67194 12.7568C5.38527 13.4701 6.24469 13.8268 7.25019 13.8268Z" fill="#040709"/>
</svg>
