<svg width="48" height="48" viewBox="0 0 48 48" fill="none" xmlns="http://www.w3.org/2000/svg">
<path d="M7.10767 40.299C6.18767 40.299 5.39001 39.9611 4.71467 39.2855C4.03901 38.6101 3.70117 37.8125 3.70117 36.8925V11.1075C3.70117 10.1841 4.03901 9.38363 4.71467 8.70596C5.39001 8.02796 6.18767 7.68896 7.10767 7.68896H40.8927C41.816 7.68896 42.6165 8.02796 43.2942 8.70596C43.9722 9.38363 44.3112 10.1841 44.3112 11.1075V36.8925C44.3112 37.8125 43.9722 38.6101 43.2942 39.2855C42.6165 39.9611 41.816 40.299 40.8927 40.299H7.10767ZM7.10767 36.8925H29.9427V28.7425H7.10767V36.8925ZM32.9427 36.8925H40.8927V17.5925H32.9427V36.8925ZM7.10767 25.7425H29.9427V17.5925H7.10767V25.7425Z" fill="#0C0902"/>
</svg>
